<svg width="375" height="816" viewBox="0 0 375 816" fill="none" xmlns="http://www.w3.org/2000/svg">
<g clip-path="url(#clip0_1147_3099)">
<rect width="375" height="815.299" rx="37.3134" fill="url(#paint0_linear_1147_3099)"/>
<g opacity="0.03" clip-path="url(#clip1_1147_3099)">
<path d="M279.609 289.453C274.246 302.2 271.127 315.202 269.787 328.677C268.064 346.03 269.94 363.085 273.192 380.049C277.047 400.196 283.065 419.785 288.101 439.628C292.447 456.737 295.768 474.011 295.624 491.809C295.573 498.124 295.045 504.404 294.261 510.678C294.052 512.395 293.233 513.524 291.927 514.489C281.798 521.984 271.659 529.485 261.549 537.013C254.285 542.429 247.066 547.921 239.783 553.325C239.011 553.895 238.261 555.141 237.177 554.606C236.171 554.105 236.326 552.838 236.415 551.79C238.413 528.386 234.365 505.687 229.062 483.13C224.324 462.998 218.367 443.146 214.712 422.757C211.195 403.18 209.444 383.474 212.615 363.58C213.961 355.143 216.927 347.16 220.048 339.21C222.183 333.788 226.835 330.957 231.049 327.617C244.01 317.327 256.985 307.041 269.971 296.794C273.135 294.289 276.389 291.901 279.609 289.453ZM239.139 550.496C244.388 546.644 249.003 543.305 253.582 539.906C265.544 531.022 277.482 522.096 289.472 513.24C290.744 512.295 291.417 511.287 291.621 509.697C292.201 505.07 292.724 500.442 292.94 495.781C293.729 478.337 290.689 461.405 286.655 444.609C281.98 425.163 276.092 406.027 271.885 386.463C266.688 362.25 264.223 337.914 269.395 313.242C270.533 307.799 272.341 302.558 274.251 297.065C271.808 298.081 270.325 299.75 268.617 301.099C254.947 311.853 241.329 322.677 227.635 333.411C224.994 335.482 223.331 338.048 222.017 341.086C215.713 355.667 213.413 370.942 213.441 386.614C213.482 408.089 217.959 428.862 223.166 449.497C227.928 468.394 233.258 487.148 236.508 506.408C238.896 520.674 240.229 535.032 239.139 550.496Z" fill="#2B844E"/>
<path d="M239.132 550.495C240.231 535.026 238.897 520.668 236.477 506.388C233.219 487.132 227.898 468.374 223.135 449.477C217.937 428.837 213.452 408.069 213.411 386.594C213.382 370.921 215.683 355.646 221.986 341.066C223.292 338.033 224.963 335.462 227.605 333.39C241.299 322.657 254.916 311.832 268.587 301.078C270.299 299.737 271.77 298.065 274.221 297.045C272.311 302.538 270.503 307.778 269.365 313.221C264.189 337.907 266.65 362.235 271.854 386.443C276.053 406.012 281.95 425.143 286.625 444.589C290.659 461.385 293.712 478.32 292.91 495.761C292.693 500.422 292.17 505.049 291.59 509.676C291.395 511.261 290.727 512.278 289.442 513.219C277.451 522.075 265.522 530.996 253.552 539.886C248.996 543.304 244.373 546.649 239.132 550.495ZM267.928 306.52C266.449 307.52 265.566 308.019 264.784 308.651C253.75 317.518 242.654 326.32 231.744 335.339C228.651 337.904 224.663 339.652 223.403 344.195C221.441 351.302 219.434 358.389 218.378 365.694C215.551 385.26 218.013 404.466 221.682 423.603C225.556 443.783 231.534 463.42 236.585 483.288C241.003 500.636 244.179 518.166 243.265 536.249C243.186 537.856 242.612 539.496 243.292 541.264C243.894 540.908 244.449 540.647 244.914 540.293C259.048 529.491 273.172 518.672 287.316 507.886C288.481 506.994 288.483 505.817 288.639 504.572C290.369 489.86 288.017 475.483 285.322 461.162C281.252 439.549 274.481 418.63 269.363 397.276C265.134 379.589 261.302 361.86 261.817 343.47C262.178 331.183 264.395 319.19 267.928 306.52Z" fill="#2B844E"/>
<path d="M267.934 306.521C264.41 319.186 262.189 331.192 261.844 343.469C261.33 361.859 265.161 379.588 269.391 397.275C274.504 418.621 281.271 439.553 285.349 461.161C288.048 475.468 290.391 489.851 288.667 504.571C288.524 505.819 288.514 507.001 287.344 507.885C273.2 518.671 259.076 529.49 244.942 540.292C244.468 540.651 243.921 540.907 243.32 541.263C242.631 539.5 243.214 537.855 243.293 536.248C244.206 518.165 241.026 500.627 236.613 483.287C231.548 463.415 225.579 443.774 221.71 423.602C218.033 404.47 215.579 385.259 218.406 365.693C219.462 358.388 221.474 351.309 223.431 344.194C224.682 339.656 228.67 337.908 231.772 335.338C242.677 326.31 253.778 317.517 264.812 308.65C265.572 308.02 266.45 307.512 267.934 306.521ZM223.824 355.299C228.268 350.184 231.727 344.543 233.362 337.89C230.827 340.316 226.74 341.027 225.694 344.867C224.773 348.261 224.08 351.711 223.293 355.138C223.276 355.341 223.272 355.547 223.254 355.749C223.451 355.599 223.64 355.453 223.824 355.299ZM262.982 313.757C260.378 315.794 257.799 317.874 255.151 319.858C253.234 321.298 252.422 322.942 252.993 325.396C253.433 327.261 254.093 329.053 256.064 329.039C257.869 329.034 259.932 327.938 260.453 326.093C261.592 322.062 262.27 317.908 263.13 313.794C263.152 313.656 263.169 313.511 263.182 313.379C263.125 313.514 263.049 313.638 262.982 313.757ZM246.659 518.172C248.832 516.932 250.975 515.45 253.66 516.507C257.28 517.926 258.103 521.271 258.999 524.776C264.039 520.823 268.844 517.031 273.7 513.289C274.525 512.653 274.861 512.138 274.702 511C273.294 500.654 276.566 491.835 284.015 484.489C284.95 483.574 285.203 482.803 285.002 481.554C284.389 477.791 283.993 473.99 283.383 470.214C279.721 447.569 272.883 425.706 267.332 403.522C263.077 386.507 259.061 369.452 258.736 351.75C258.611 344.85 258.893 337.958 259.768 330.929C253.244 333.748 251.837 332.84 250.18 324.992C245.939 328.247 241.734 331.446 237.554 334.687C236.842 335.244 236.922 336.191 236.736 336.98C234.665 345.914 230.494 353.637 223.334 359.636C222.399 360.415 221.976 361.343 221.814 362.558C220.979 368.726 220.386 374.898 220.458 381.13C220.672 400.366 224.139 419.102 228.504 437.715C234.754 464.367 243.82 490.383 246.098 517.939C246.056 518.1 246.008 518.252 245.966 518.413C246.203 518.329 246.431 518.251 246.659 518.172ZM286.116 487.44C285.258 487.439 284.878 487.958 284.459 488.409C279.763 493.526 277.54 499.612 277.191 506.408C277.134 507.606 276.691 509.236 277.878 509.811C278.823 510.269 279.812 508.904 280.756 508.334C282.17 507.475 283.538 506.519 284.888 505.552C285.636 505.018 286.27 504.485 286.327 503.344C286.563 498.038 286.803 492.72 286.116 487.44ZM245.684 536.247C248.971 533.681 251.683 531.421 254.555 529.372C256.326 528.11 256.471 526.712 255.856 524.861C255.124 522.637 254.306 520.499 251.803 519.809C249.808 519.26 246.149 521.661 246.205 523.516C246.321 527.54 246.17 531.54 245.684 536.247Z" fill="#2B844E"/>
<path d="M246.103 517.932C243.826 490.376 234.751 464.365 228.509 437.707C224.149 419.104 220.678 400.358 220.463 381.123C220.396 374.9 220.984 368.719 221.82 362.551C221.982 361.336 222.405 360.407 223.34 359.628C230.491 353.635 234.662 345.911 236.741 336.972C236.922 336.176 236.847 335.237 237.559 334.68C241.739 331.439 245.944 328.239 250.185 324.985C251.834 332.838 253.255 333.749 259.773 330.922C258.89 337.956 258.617 344.843 258.741 351.743C259.066 369.444 263.082 386.5 267.338 403.515C272.889 425.698 279.727 447.561 283.389 470.206C283.993 473.975 284.389 477.776 285.007 481.547C285.204 482.788 284.951 483.559 284.021 484.482C276.571 491.827 273.3 500.646 274.708 510.993C274.861 512.123 274.517 512.643 273.705 513.281C268.849 517.024 264.049 520.824 259.004 524.769C258.108 521.264 257.288 517.906 253.665 516.5C250.977 515.456 248.837 516.925 246.664 518.165C246.486 518.056 246.3 517.974 246.103 517.932Z" fill="#2B844E"/>
<path d="M286.115 487.439C286.807 492.727 286.562 498.037 286.323 503.356C286.274 504.492 285.627 505.022 284.883 505.564C283.534 506.531 282.174 507.483 280.752 508.346C279.799 508.921 278.824 510.29 277.873 509.823C276.686 509.248 277.129 507.618 277.187 506.42C277.536 499.624 279.767 493.533 284.454 488.421C284.872 487.948 285.252 487.43 286.115 487.439Z" fill="#2B844E"/>
<path d="M245.679 536.248C246.157 531.546 246.316 527.541 246.192 523.522C246.136 521.667 249.795 519.266 251.79 519.815C254.292 520.505 255.111 522.643 255.843 524.867C256.458 526.718 256.313 528.116 254.542 529.378C251.687 531.417 248.961 533.674 245.679 536.248Z" fill="#2B844E"/>
<path d="M263.145 313.804C262.28 317.911 261.594 322.069 260.455 326.1C259.934 327.946 257.874 329.028 256.066 329.047C254.09 329.051 253.435 327.268 252.995 325.403C252.416 322.954 253.236 321.305 255.153 319.866C257.8 317.881 260.38 315.802 262.984 313.764L263.145 313.804Z" fill="#2B844E"/>
<path d="M223.289 355.137C224.075 351.71 224.768 348.259 225.689 344.866C226.735 341.026 230.822 340.315 233.357 337.889C231.722 344.542 228.263 350.182 223.819 355.298C223.651 355.227 223.472 355.175 223.289 355.137Z" fill="#2B844E"/>
<path d="M223.823 355.306C223.634 355.451 223.442 355.61 223.254 355.755C223.272 355.553 223.276 355.348 223.293 355.146C223.471 355.176 223.65 355.228 223.823 355.306Z" fill="#2B844E"/>
<path d="M246.656 518.171C246.428 518.249 246.2 518.328 245.981 518.401C246.023 518.241 246.07 518.089 246.112 517.928C246.3 517.975 246.486 518.057 246.656 518.171Z" fill="#2B844E"/>
<path d="M262.975 313.749C263.048 313.629 263.113 313.515 263.181 313.387C263.16 313.52 263.144 313.66 263.131 313.788C263.136 313.796 262.975 313.749 262.975 313.749Z" fill="#2B844E"/>
<path d="M142.627 67.6755C149.561 73.3298 155.755 78.4609 162.046 83.4764C184.825 101.618 206.125 121.447 227.985 140.635C229.755 142.185 230.534 144.004 230.776 146.358C232.944 167.495 227.973 187.324 219.243 206.512C209.384 228.166 197.179 248.608 185.587 269.355C172.55 292.696 160.14 316.307 151.544 341.675C146.774 355.734 144.485 370.223 143.168 384.9C143.004 386.695 143.551 389.334 141.792 389.987C140.067 390.632 139.29 387.987 138.134 386.808C115.825 363.897 92.9325 341.551 70.1264 319.136C67.8306 316.883 66.5105 314.542 66.2088 311.063C63.6991 282.274 72.2482 255.721 83.2026 229.582C92.681 206.96 105.133 185.885 117.41 164.703C126.414 149.156 134.588 133.21 139.931 116.055C144.369 101.834 146.262 87.3285 143.285 72.5698C143.01 71.2583 142.916 69.9198 142.627 67.6755ZM147.368 75.3665C147.072 76.3321 146.919 76.5634 146.946 76.7677C149.109 94.0482 145.523 110.564 139.643 126.775C133.581 143.459 124.806 158.83 115.852 174.07C106.285 190.339 96.8798 206.672 89.1194 223.878C82.2773 239.044 76.5081 254.594 72.6972 270.747C69.5553 284.094 68.7904 297.69 69.4157 311.346C69.4751 312.733 70.0195 313.646 70.9888 314.621C81.4436 325.088 91.8084 335.641 102.263 346.108C113.935 357.807 125.675 369.449 137.374 381.13C137.939 381.689 138.316 382.711 139.246 382.43C140.277 382.122 139.805 381.057 139.871 380.307C141.361 362.978 146.116 346.404 152.357 330.218C160.321 309.556 170.698 290.009 181.355 270.606C191.833 251.517 202.838 232.685 212.312 213.075C222.51 191.958 229.819 170.194 227.035 146.333C226.834 144.568 226.364 143.423 225.035 142.265C211.543 130.436 198.227 118.412 184.641 106.684C172.438 96.1568 159.981 85.9524 147.368 75.3665Z" fill="#2B844E"/>
<path d="M147.369 75.3686C159.982 85.9545 172.429 96.165 184.617 106.689C198.203 118.417 211.519 130.441 225.011 142.27C226.34 143.428 226.801 144.579 227.011 146.338C229.795 170.199 222.495 191.957 212.288 213.08C202.814 232.69 191.819 251.516 181.331 270.611C170.684 290.008 160.297 309.561 152.333 330.223C146.092 346.409 141.337 362.983 139.847 380.312C139.781 381.062 140.253 382.127 139.222 382.435C138.292 382.716 137.909 381.685 137.35 381.135C125.651 369.454 113.917 357.822 102.239 346.113C91.7937 335.64 81.429 325.087 70.9648 314.626C69.9955 313.651 69.4512 312.738 69.3917 311.351C68.7572 297.702 69.5221 284.105 72.6733 270.752C76.4782 254.59 82.2534 239.049 89.0955 223.883C96.8558 206.677 106.261 190.344 115.828 174.075C124.782 158.835 133.557 143.464 139.619 126.78C145.508 110.563 149.085 94.0533 146.922 76.7727C146.929 76.5593 147.073 76.3342 147.369 75.3686ZM74.6925 311.126C75.2633 311.695 75.6618 312.101 76.0756 312.511C79.5654 315.879 83.0863 319.214 86.5264 322.628C101.754 337.756 116.215 353.636 131.828 368.381C132.523 369.039 133.24 370.296 134.35 369.845C135.398 369.421 135.292 368.025 135.386 367.034C135.914 361.561 137.427 356.318 138.797 351C142.155 337.983 146.705 325.389 152.135 313.109C160.084 295.139 169.223 277.75 178.827 260.606C187.531 245.085 196.676 229.812 204.623 213.884C214.249 194.567 221.512 174.677 222.249 152.935C222.352 149.832 221.721 147.51 219.361 145.261C208.062 134.495 196.286 124.238 184.623 113.868C175.113 105.411 165.264 97.3476 155.582 89.0952C155.044 88.6365 154.524 87.9036 153.839 88.2737C153.045 88.7015 153.165 89.6955 153.196 90.5126C153.426 95.988 152.912 101.401 152.04 106.812C150 119.372 145.24 131.056 139.962 142.517C131.489 160.922 120.48 178.004 110.817 195.788C105.909 204.835 100.918 213.857 96.5028 223.131C89.4673 237.901 83.3268 253.066 79.1288 268.87C75.6702 281.874 73.3517 295.061 74.1904 308.577C74.2661 309.482 74.5502 310.382 74.6925 311.126Z" fill="#2B844E"/>
<path d="M74.6907 311.128C74.5423 310.374 74.2642 309.483 74.2038 308.581C73.3558 295.072 75.6836 281.878 79.1423 268.874C83.3403 253.07 89.4807 237.905 96.5162 223.135C100.941 213.855 105.922 204.839 110.831 195.792C120.487 177.999 131.503 160.926 139.976 142.521C145.253 131.061 150.013 119.376 152.053 106.816C152.935 101.399 153.433 95.9829 153.21 90.5167C153.175 89.7149 153.064 88.7147 153.852 88.2778C154.538 87.9076 155.057 88.6406 155.596 89.0992C165.277 97.3517 175.132 105.425 184.636 113.872C196.3 124.242 208.069 134.49 219.374 145.265C221.735 147.515 222.372 149.845 222.262 152.939C221.516 174.687 214.262 194.571 204.636 213.888C196.695 229.825 187.544 245.089 178.84 260.61C169.227 277.76 160.088 295.149 152.149 313.114C146.718 325.393 142.169 337.987 138.811 351.004C137.44 356.323 135.927 361.565 135.4 367.038C135.306 368.029 135.411 369.425 134.363 369.849C133.254 370.301 132.537 369.043 131.841 368.386C116.228 353.64 101.768 337.761 86.5398 322.632C83.0997 319.218 79.5695 315.889 76.0891 312.515C75.66 312.102 75.2615 311.696 74.6907 311.128ZM91.0025 320.418C91.9624 321.622 92.9533 322.792 94.591 323.107C101.231 329.791 107.862 336.481 114.496 343.155C113.076 346.191 116.066 347.519 116.957 349.67C121.507 354.254 126.067 358.832 130.965 363.765C131.851 356.775 132.752 350.494 134.477 344.341C135.916 344.839 136.068 343.693 136.653 342.825C138.062 340.765 135.093 339.974 135.555 338.271C137.603 329.369 141.154 320.962 144.592 312.524C154.195 288.958 166.784 266.877 179.581 244.91C190.906 225.476 202.031 205.937 210.029 184.86C211.915 179.884 214.058 174.936 214.55 169.551C215.933 168.423 217.201 167.241 216.332 165.205C217.619 160.569 218.056 155.809 218.594 151.061C218.812 149.165 218.122 147.969 216.771 146.877C212.704 143.598 208.662 140.278 204.617 136.972C203.742 135.412 202.457 134.826 200.691 135.367C194.375 129.767 188.059 124.166 181.734 118.571C180.34 116.016 179.123 113.345 176.872 111.364C176.37 110.921 175.848 110.975 175.296 111.205C170.155 105.516 164.139 100.818 158.035 95.3791C158.026 102.96 157.687 109.775 155.777 116.416C154.287 117.744 154.131 119.207 155.265 120.82C153.274 126.911 151.514 133.073 149.059 139.023C142.846 154.118 134.699 168.241 126.47 182.301C112.937 205.391 100.317 228.903 90.8919 253.976C86.8502 264.733 84.0963 275.837 81.211 286.922C78.1088 287.448 78.1854 289.124 79.5696 291.28C79.0681 295.415 78.738 299.569 78.0134 303.668C77.3453 307.467 78.6877 309.964 81.7288 312.161C85.0977 314.575 88.3501 317.195 91.0025 320.418Z" fill="#2B844E"/>
<path d="M114.5 343.162C107.86 336.478 101.229 329.789 94.5946 323.114C95.9996 319.002 95.5331 314.846 94.8669 310.729C93.2913 301.111 88.5895 293.237 81.2331 286.917C84.1244 275.84 86.8723 264.727 90.9141 253.971C100.33 228.904 112.959 205.385 126.492 182.295C134.721 168.236 142.868 154.113 149.081 139.018C151.536 133.068 153.296 126.906 155.288 120.814C156.406 121.43 157.496 122.103 158.643 122.661C164.694 125.609 172.068 124.421 175.748 119.187C177.978 116.014 179.441 115.554 181.756 118.566C188.072 124.167 194.388 129.767 200.713 135.362C196.947 147.128 203.295 162.783 214.566 169.536C214.074 174.921 211.931 179.87 210.045 184.846C202.056 205.917 190.922 225.461 179.597 244.896C166.801 266.863 154.211 288.943 144.608 312.51C141.17 320.948 137.619 329.355 135.572 338.257C134.033 339.146 133.227 337.672 132.224 337.151C124.925 333.41 118.031 335.697 114.5 343.162Z" fill="#2B844E"/>
<path d="M155.786 116.432C157.706 109.785 158.035 102.976 158.044 95.3946C164.148 100.833 170.174 105.525 175.306 111.22C174.767 115.603 172.295 118.489 168.081 119.624C163.436 120.871 159.448 119.111 155.786 116.432Z" fill="#2B844E"/>
<path d="M134.477 344.34C132.761 350.487 131.851 356.773 130.965 363.764C126.067 358.831 121.507 354.253 116.957 349.669C117.81 348.705 117.672 347.5 117.839 346.358C118.466 341.97 121.388 339.548 125.859 339.696C129.525 339.809 132.205 341.719 134.477 344.34Z" fill="#2B844E"/>
<path d="M204.625 136.977C208.671 140.283 212.706 143.595 216.78 146.882C218.13 147.974 218.826 149.18 218.603 151.066C218.056 155.82 217.628 160.575 216.341 165.211C207.12 160.295 201.241 146.126 204.625 136.977Z" fill="#2B844E"/>
<path d="M91.0018 320.416C88.3495 317.193 85.097 314.573 81.7467 312.147C78.7056 309.95 77.3632 307.453 78.0313 303.653C78.7559 299.555 79.086 295.401 79.5875 291.266C88.2343 298.181 91.6254 307.475 91.6796 318.272C91.6899 319.037 91.9832 319.931 91.0018 320.416Z" fill="#2B844E"/>
<path d="M204.622 136.982C201.232 146.121 207.11 160.29 216.338 165.215C217.2 167.242 215.942 168.418 214.556 169.561C203.284 162.807 196.931 147.143 200.702 135.386C202.472 134.83 203.747 135.422 204.622 136.982Z" fill="#2B844E"/>
<path d="M91.0035 320.418C91.9849 319.933 91.6915 319.039 91.6812 318.274C91.6178 307.482 88.2299 298.173 79.5891 291.268C78.205 289.112 78.1283 287.435 81.2305 286.91C88.5868 293.23 93.2827 301.094 94.8643 310.722C95.5398 314.833 96.0062 318.989 94.592 323.107C92.9543 322.792 91.9693 321.631 91.0035 320.418Z" fill="#2B844E"/>
<path d="M155.789 116.43C159.451 119.11 163.436 120.885 168.093 119.616C172.301 118.472 174.779 115.595 175.318 111.213C175.875 110.991 176.397 110.938 176.893 111.372C179.135 113.359 180.352 116.03 181.755 118.579C179.433 115.558 177.968 116.033 175.747 119.2C172.067 124.434 164.693 125.622 158.642 122.674C157.495 122.116 156.405 121.443 155.286 120.827C154.142 119.221 154.308 117.752 155.789 116.43Z" fill="#2B844E"/>
<path d="M134.48 344.339C132.202 341.708 129.522 339.799 125.865 339.68C121.4 339.54 118.472 341.953 117.845 346.341C117.678 347.484 117.817 348.688 116.963 349.653C116.078 347.51 113.083 346.174 114.503 343.138C118.04 335.682 124.927 333.386 132.208 337.139C133.227 337.663 134.026 339.128 135.556 338.245C135.093 339.948 138.053 340.745 136.654 342.799C136.068 343.706 135.919 344.836 134.48 344.339Z" fill="#2B844E"/>
<path d="M42.2463 527.427C41.565 523.412 41.0531 520.09 40.4267 516.777C37.753 502.599 30.8317 490.451 22.1255 479.218C3.31084 454.928 -20.0804 435.824 -45.659 419.209C-64.0539 407.255 -83.4102 397.275 -104.299 390.5C-114.318 387.253 -124.459 384.504 -134.999 383.57C-136.008 383.481 -137.541 383.878 -137.891 382.775C-138.259 381.628 -136.955 380.73 -136.162 379.936C-128.649 372.387 -121.095 364.866 -113.543 357.358C-99.6111 343.494 -85.3625 329.929 -73.1969 314.401C-71.8938 312.733 -70.6732 312.276 -68.5041 312.817C-37.9859 320.439 -9.54231 332.845 16.7367 350.246C43.5708 368.011 65.8654 390.168 81.6836 418.502C86.4062 426.955 90.4531 435.729 93.9876 444.74C94.688 446.528 94.886 448.084 93.6736 449.924C79.1215 472.048 64.686 494.249 50.1795 516.409C47.839 520 45.5008 523.645 42.2463 527.427ZM44.2535 519.417C50.4101 511.147 55.6338 502.772 61.0426 494.529C71.0525 479.299 80.8875 463.952 90.8619 448.702C91.6643 447.472 91.723 446.442 91.2437 445.191C87.5746 435.641 83.2147 426.389 78.105 417.561C70.8072 404.955 61.9754 393.397 51.8588 382.933C36.4448 366.98 18.7083 354.078 -0.55932 343.18C-21.6224 331.277 -43.8611 322.455 -67.1764 316.266C-69.9981 315.513 -71.6099 315.874 -72.9152 318.458C-73.5987 319.819 -74.6755 320.997 -75.6962 322.161C-89.8191 338.474 -105.536 353.22 -120.767 368.441C-123.843 371.511 -127.055 374.439 -130.145 377.486C-130.884 378.212 -131.72 379.089 -131.548 380.254C-131.396 381.289 -130.334 381.09 -129.63 381.18C-119.469 382.473 -109.617 385.113 -99.9625 388.522C-71.4433 398.586 -45.4561 413.403 -21.7143 432.09C-5.25988 445.038 10.2889 459.008 23.1632 475.742C30.8257 485.697 37.494 496.104 41.1496 508.274C42.1997 511.783 42.4194 515.528 44.2535 519.417Z" fill="#2B844E"/>
<path d="M44.2523 519.416C42.4233 515.535 42.1985 511.783 41.1459 508.253C37.4903 496.084 30.8221 485.676 23.1596 475.721C10.2903 458.995 -5.26354 445.018 -21.7179 432.07C-45.4598 413.382 -71.4469 398.566 -99.9662 388.501C-109.616 385.1 -119.46 382.455 -129.634 381.16C-130.338 381.069 -131.399 381.269 -131.552 380.234C-131.724 379.069 -130.89 378.204 -130.149 377.465C-127.058 374.418 -123.839 371.485 -120.771 368.421C-105.54 353.2 -89.8151 338.449 -75.6999 322.14C-74.6918 320.974 -73.6151 319.796 -72.9188 318.437C-71.6135 315.853 -70.0044 315.505 -67.1801 316.246C-43.8597 322.443 -21.6261 331.256 -0.562959 343.16C18.6996 354.05 36.4412 366.959 51.8552 382.912C61.9642 393.381 70.8035 404.934 78.1014 417.54C83.2111 426.368 87.571 435.621 91.2401 445.171C91.7194 446.421 91.6607 447.451 90.8583 448.681C80.8839 463.932 71.0438 479.271 61.039 494.509C55.6276 502.764 50.4089 511.147 44.2523 519.416ZM-122.025 377.348C-115.374 378.79 -109.289 380.403 -103.199 382.091C-88.3114 386.228 -74.3587 392.595 -60.8483 399.891C-36.2318 413.182 -14.0901 429.975 6.26904 449.191C15.826 458.215 24.7824 467.775 32.4029 478.484C37.7684 486.032 41.7412 494.392 45.0283 503.058C45.4322 504.127 45.4239 505.751 46.723 505.848C47.6764 505.919 48.1975 504.476 48.8047 503.616C56.0811 493.215 62.7797 482.432 69.6455 471.771C74.5756 464.116 79.8555 456.696 84.5196 448.853C85.6843 446.89 85.8456 445.198 85.0043 443.127C82.1839 436.194 79.2029 429.332 75.4009 422.887C68.5404 411.284 60.5161 400.475 51.3705 390.609C37.1942 375.311 20.8607 362.582 3.07265 351.807C-9.42163 344.242 -22.4757 337.727 -36.0827 332.389C-45.6769 328.621 -55.4497 325.467 -65.4577 323.038C-66.8598 322.7 -67.8645 322.719 -69.0053 323.983C-76.7196 332.479 -84.6894 340.734 -93.011 348.636C-98.7411 354.082 -104.463 359.523 -110.1 365.062C-114.08 368.955 -118.255 372.667 -122.025 377.348Z" fill="#2B844E"/>
<path d="M-122.024 377.349C-118.253 372.668 -114.086 368.961 -110.111 365.06C-104.475 359.521 -98.7524 354.08 -93.0223 348.634C-84.7007 340.733 -76.7309 332.477 -69.0166 323.982C-67.8708 322.725 -66.8711 322.699 -65.4689 323.037C-55.461 325.465 -45.6958 328.625 -36.094 332.387C-22.487 337.726 -9.43294 344.241 3.06134 351.805C20.8494 362.58 37.1829 375.31 51.3592 390.608C60.5048 400.473 68.5291 411.282 75.3896 422.886C79.1993 429.326 82.1803 436.187 84.993 443.125C85.8394 445.204 85.6857 446.891 84.5083 448.851C79.8519 456.69 74.5643 464.115 69.6342 471.769C62.7608 482.435 56.0749 493.221 48.7934 503.615C48.1913 504.482 47.6651 505.917 46.7117 505.847C45.4126 505.75 45.421 504.125 45.017 503.057C41.73 494.391 37.7572 486.031 32.3916 478.483C24.7762 467.781 15.8223 458.208 6.25773 449.189C-14.1014 429.974 -36.243 413.18 -60.8596 399.89C-74.37 392.594 -88.3227 386.226 -103.21 382.089C-109.28 380.4 -115.373 378.791 -122.024 377.349ZM69.6441 425.401C70.2652 424.796 70.024 424.227 69.6535 423.577C66.4926 418.078 62.2417 413.337 58.772 408.051C58.3985 407.48 57.8906 407.339 57.2687 407.592C53.1033 402.563 48.8152 397.648 44.31 392.918C25.9554 373.625 4.33472 358.881 -19.1404 346.683C-28.1323 342.015 -37.5152 338.219 -46.731 334.061C-47.7002 332.128 -47.8625 329.073 -51.3705 330.73C-53.6248 329.925 -55.8741 329.128 -58.1207 328.318C-65.7718 325.548 -65.8225 325.504 -70.8013 331.747C-71.9327 333.16 -73.8884 334.131 -73.8109 336.371C-74.8676 337.096 -76.3194 337.517 -76.0232 339.273C-76.7826 339.55 -77.2131 340.195 -77.7323 340.755C-83.2895 346.716 -89.0263 352.485 -95.1199 357.894C-97.85 359.603 -100.742 361.099 -102.661 363.831C-106.172 367.153 -109.684 370.475 -113.474 374.057C-106.836 375.496 -100.642 376.708 -94.6653 378.756C-93.6377 379.725 -92.512 380.409 -91.0217 379.929C-84.0414 382.092 -77.2107 384.661 -70.6555 387.894C-34.6428 405.667 -2.7845 429.122 24.3388 458.892C30.1175 465.233 35.4565 472.005 39.0092 479.957C38.8959 481.706 39.1039 483.31 40.9868 484.116C44.2842 488.302 45.216 493.553 47.2551 498.607C50.0827 494.256 52.1705 489.861 55.1607 486.043C56.89 485.076 58.2844 483.966 56.8742 481.727C57.3996 480.943 57.9555 480.171 58.4632 479.377C62.289 473.293 65.7042 466.95 69.8597 461.069C71.0409 461.354 70.8407 460.714 70.5441 460.027C70.5807 459.848 70.6856 459.725 70.8512 459.66C72.0556 458.894 73.0773 458.05 72.4653 456.379C75.2906 452.493 78.0803 448.585 80.9689 444.745C81.6961 443.785 81.1502 443.118 80.8056 442.374C78.6047 437.624 76.3732 432.894 73.5654 428.452C73.24 426.451 72.6221 424.939 70.2311 426.482C70.0143 426.117 69.8228 425.757 69.6441 425.401Z" fill="#2B844E"/>
<path d="M-98.3748 356.55C-91.989 350.907 -85.9641 344.887 -80.1409 338.682C-79.5881 338.093 -79.143 337.428 -78.3501 337.136C-68.292 340.042 -58.8271 339.262 -50.4129 332.349C-49.5782 331.666 -48.9009 331.075 -47.7995 331.535C-38.2237 335.767 -28.4792 339.627 -19.1563 344.399C5.20375 356.854 27.6059 371.963 46.5893 391.795C51.2469 396.658 55.677 401.715 59.9786 406.89C61.2967 408.694 63.5861 410.318 64.9042 412.123C67.1968 417.409 71.238 421.47 74.2058 426.337C72.5271 429.331 69.8836 432.935 69.3941 436.365C68.1474 444.966 69.2766 453.125 73.7185 460.682C73.5323 460.747 73.4301 460.871 73.396 461.064C73.1532 461.427 72.9104 461.79 72.6756 462.148C68.3049 468.265 64.7017 474.856 60.6728 481.181C60.1435 482.016 59.5669 482.813 59.0008 483.626C53.5667 475.549 47.8025 474.974 40.6795 481.78C40.6098 481.849 40.018 482.19 39.9327 482.235C36.2987 474.024 30.7795 467.058 24.8072 460.536C-3.22419 429.919 -35.7451 405.565 -73.1275 387.422C-79.931 384.123 -87.0263 381.514 -94.2804 379.327C-88.5557 373.163 -90.056 365.031 -98.0949 360.089C-100.311 358.713 -100.412 357.928 -98.3748 356.55Z" fill="#2B844E"/>
<path d="M73.5439 428.446C76.3467 432.88 79.292 436.867 81.5005 441.612C81.8502 442.364 81.5163 445.421 80.7891 446.381C77.9005 450.221 75.1417 454.607 72.3164 458.493C71.5687 456.031 70.6811 451.49 70.2566 448.97C69.0144 441.775 68.8576 434.685 73.5439 428.446Z" fill="#2B844E"/>
<path d="M59.3169 484.646C54.5801 490.745 51.2895 497.778 46.8173 504.733C43.5051 496.59 41.9628 488.175 36.6705 481.416C41.7084 471.446 50.6686 470.872 56.9661 480.15C57.9092 481.538 58.5441 483.146 59.3169 484.646Z" fill="#2B844E"/>
<path d="M74.8465 427.281C70.1678 433.515 69.0177 441.769 70.2472 448.961C70.6793 451.476 71.6943 453.896 72.4344 456.364C73.0464 458.034 72.0171 458.884 70.8204 459.645C66.504 452.314 65.357 444.429 66.5035 436.122C66.9631 432.814 68.2781 429.828 69.8697 426.947C69.9825 426.785 70.0875 426.628 70.2003 426.466C72.5887 424.936 74.5134 425.285 74.8465 427.281Z" fill="#2B844E"/>
<path d="M55.1348 486.036C54.6564 485.104 54.2648 484.105 53.6792 483.243C49.7616 477.491 44.1466 477.883 40.9609 484.109C39.0856 483.298 38.87 481.699 38.9833 479.951C39.0649 479.908 39.1693 479.884 39.2358 479.818C46.0294 473.291 51.5681 473.885 56.8406 481.725C58.2558 483.972 56.8641 485.07 55.1348 486.036Z" fill="#2B844E"/>
<path d="M61.1004 412.861C59.8225 411.108 58.5396 409.348 57.2617 407.596C57.8836 407.343 58.3915 407.485 58.7649 408.055C62.2347 413.341 66.4805 418.075 69.6465 423.581C70.017 424.231 70.2582 424.8 69.6371 425.405C66.7975 421.216 63.9553 417.04 61.1004 412.861Z" fill="#2B844E"/>
<path d="M69.8277 461.066C70.0584 460.717 70.2891 460.368 70.5121 460.023C70.8087 460.711 71.0089 461.351 69.8277 461.066Z" fill="#2B844E"/>
</g>
</g>
<defs>
<linearGradient id="paint0_linear_1147_3099" x1="187.5" y1="0" x2="187.5" y2="815.299" gradientUnits="userSpaceOnUse">
<stop stop-color="#051F0F"/>
<stop offset="1"/>
</linearGradient>
<clipPath id="clip0_1147_3099">
<rect width="375" height="815.299" rx="37.3134" fill="white"/>
</clipPath>
<clipPath id="clip1_1147_3099">
<rect width="993.45" height="1148.6" fill="white" transform="translate(-369.713 219.042) rotate(-33.1998)"/>
</clipPath>
</defs>
</svg>
