<svg width="375" height="816" viewBox="0 0 375 816" fill="none" xmlns="http://www.w3.org/2000/svg">
<g clip-path="url(#clip0_1147_3342)">
<rect width="375" height="815.299" rx="37.3134" fill="white"/>
<g opacity="0.03" clip-path="url(#clip1_1147_3342)">
<path d="M908.754 368.715C864.637 517.559 821.758 664.191 777.428 810.383C762.981 858.013 715.523 883.094 667.565 869.3C551.618 836.01 435.9 801.864 320.411 766.863C273.123 752.541 247.943 707.531 259.195 659.981C265.906 631.648 275.22 603.939 283.869 574.27L535.51 648.439L580.525 497.873L328.218 422.648C342.657 376.489 353.67 330.192 371.725 286.745C389.119 244.755 435.758 229.171 483.607 243.081C592.347 274.972 701.052 307.041 809.724 339.29C841.8 348.824 873.985 358.441 908.754 368.715Z" fill="#2B844E"/>
<path d="M279.609 289.453C274.245 302.2 271.126 315.202 269.786 328.677C268.063 346.03 269.939 363.085 273.192 380.049C277.046 400.195 283.065 419.785 288.101 439.628C292.446 456.737 295.768 474.011 295.624 491.809C295.573 498.123 295.044 504.404 294.26 510.678C294.052 512.395 293.233 513.524 291.927 514.489C281.797 521.984 271.659 529.484 261.549 537.013C254.285 542.429 247.065 547.92 239.783 553.325C239.01 553.895 238.26 555.141 237.177 554.606C236.171 554.104 236.325 552.838 236.415 551.79C238.413 528.385 234.364 505.686 229.061 483.13C224.323 462.998 218.366 443.146 214.712 422.757C211.195 403.18 209.443 383.474 212.615 363.58C213.961 355.143 216.926 347.16 220.048 339.21C222.183 333.787 226.835 330.956 231.048 327.616C244.01 317.327 256.985 307.041 269.971 296.793C273.134 294.289 276.389 291.9 279.609 289.453ZM239.138 550.495C244.388 546.644 249.002 543.304 253.581 539.906C265.544 531.022 277.481 522.095 289.472 513.239C290.743 512.295 291.417 511.286 291.62 509.697C292.2 505.069 292.723 500.442 292.94 495.781C293.728 478.337 290.689 461.405 286.655 444.609C281.979 425.163 276.092 406.027 271.884 386.463C266.688 362.25 264.222 337.914 269.395 313.242C270.533 307.798 272.341 302.558 274.251 297.065C271.808 298.08 270.324 299.749 268.617 301.098C254.946 311.852 241.329 322.677 227.635 333.411C224.993 335.482 223.331 338.048 222.016 341.086C215.712 355.666 213.412 370.942 213.441 386.614C213.482 408.089 217.958 428.862 223.165 449.497C227.928 468.394 233.257 487.148 236.507 506.408C238.895 520.673 240.229 535.032 239.138 550.495Z" fill="#2B844E"/>
<path d="M239.131 550.495C240.23 535.026 238.897 520.668 236.477 506.388C233.219 487.132 227.897 468.373 223.135 449.476C217.936 428.837 213.451 408.069 213.41 386.594C213.382 370.921 215.682 355.646 221.986 341.066C223.292 338.032 224.963 335.461 227.604 333.39C241.298 322.656 254.916 311.832 268.586 301.078C270.299 299.737 271.769 298.065 274.22 297.045C272.31 302.538 270.503 307.778 269.364 313.221C264.188 337.907 266.649 362.234 271.854 386.442C276.053 406.012 281.949 425.142 286.624 444.588C290.658 461.384 293.711 478.32 292.91 495.761C292.693 500.422 292.17 505.049 291.59 509.676C291.395 511.261 290.726 512.278 289.441 513.219C277.451 522.075 265.522 530.996 253.551 539.886C248.995 543.304 244.372 546.649 239.131 550.495ZM267.928 306.52C266.448 307.52 265.565 308.019 264.784 308.651C253.749 317.518 242.653 326.32 231.744 335.339C228.65 337.903 224.662 339.652 223.403 344.195C221.441 351.301 219.433 358.389 218.378 365.694C215.55 385.26 218.013 404.466 221.682 423.603C225.556 443.783 231.533 463.419 236.584 483.287C241.003 500.636 244.178 518.166 243.265 536.249C243.186 537.856 242.611 539.495 243.291 541.264C243.893 540.908 244.448 540.647 244.914 540.293C259.048 529.49 273.172 518.672 287.316 507.886C288.481 506.994 288.483 505.817 288.638 504.572C290.368 489.86 288.017 475.483 285.321 461.162C281.251 439.549 274.48 418.63 269.362 397.275C265.133 379.589 261.302 361.859 261.816 343.469C262.178 331.183 264.395 319.19 267.928 306.52Z" fill="#2B844E"/>
<path d="M267.934 306.521C264.409 319.186 262.189 331.192 261.844 343.468C261.329 361.858 265.161 379.588 269.39 397.274C274.503 418.62 281.271 439.553 285.349 461.161C288.048 475.468 290.391 489.851 288.666 504.571C288.524 505.819 288.514 507.001 287.343 507.885C273.2 518.671 259.075 529.489 244.941 540.292C244.467 540.651 243.921 540.906 243.319 541.262C242.631 539.499 243.213 537.855 243.293 536.248C244.206 518.165 241.025 500.627 236.612 483.286C231.548 463.415 225.578 443.774 221.709 423.602C218.032 404.47 215.578 385.259 218.406 365.693C219.461 358.388 221.473 351.309 223.431 344.194C224.681 339.656 228.669 337.907 231.771 335.338C242.676 326.31 253.777 317.517 264.812 308.65C265.571 308.02 266.449 307.512 267.934 306.521ZM223.823 355.299C228.267 350.184 231.726 344.543 233.361 337.89C230.827 340.316 226.74 341.027 225.694 344.867C224.773 348.261 224.08 351.711 223.293 355.138C223.275 355.341 223.271 355.546 223.254 355.749C223.451 355.598 223.639 355.453 223.823 355.299ZM262.982 313.756C260.378 315.794 257.798 317.874 255.151 319.858C253.234 321.297 252.422 322.942 252.993 325.396C253.433 327.261 254.092 329.052 256.064 329.039C257.869 329.034 259.932 327.938 260.453 326.092C261.592 322.062 262.269 317.908 263.13 313.793C263.151 313.656 263.168 313.511 263.181 313.378C263.124 313.514 263.049 313.638 262.982 313.756ZM246.659 518.172C248.831 516.932 250.974 515.45 253.659 516.507C257.279 517.926 258.103 521.271 258.998 524.776C264.039 520.823 268.843 517.031 273.699 513.288C274.525 512.653 274.86 512.138 274.702 511C273.294 500.653 276.565 491.834 284.015 484.489C284.95 483.574 285.203 482.803 285.002 481.554C284.388 477.791 283.993 473.99 283.383 470.213C279.721 447.568 272.883 425.705 267.332 403.522C263.076 386.507 259.06 369.451 258.735 351.75C258.611 344.849 258.892 337.957 259.768 330.929C253.244 333.748 251.837 332.839 250.179 324.992C245.938 328.246 241.733 331.446 237.553 334.687C236.841 335.244 236.921 336.191 236.735 336.979C234.665 345.913 230.494 353.637 223.334 359.635C222.399 360.414 221.976 361.343 221.814 362.558C220.978 368.726 220.386 374.898 220.457 381.129C220.672 400.365 224.138 419.102 228.503 437.714C234.754 464.367 243.82 490.383 246.097 517.939C246.055 518.099 246.008 518.252 245.966 518.412C246.202 518.329 246.43 518.25 246.659 518.172ZM286.116 487.44C285.257 487.439 284.877 487.958 284.458 488.409C279.763 493.526 277.54 499.611 277.191 506.408C277.133 507.606 276.69 509.236 277.877 509.811C278.823 510.269 279.812 508.904 280.756 508.334C282.17 507.475 283.538 506.519 284.887 505.551C285.636 505.018 286.27 504.485 286.327 503.343C286.563 498.038 286.802 492.719 286.116 487.44ZM245.683 536.247C248.97 533.681 251.683 531.421 254.555 529.371C256.325 528.109 256.471 526.712 255.856 524.86C255.124 522.637 254.305 520.499 251.803 519.809C249.808 519.259 246.149 521.661 246.205 523.516C246.32 527.539 246.17 531.539 245.683 536.247Z" fill="#2B844E"/>
<path d="M246.103 517.932C243.825 490.376 234.751 464.365 228.509 437.707C224.149 419.103 220.677 400.358 220.462 381.122C220.396 374.899 220.984 368.719 221.819 362.551C221.981 361.336 222.404 360.407 223.339 359.628C230.49 353.635 234.662 345.911 236.741 336.972C236.922 336.176 236.847 335.237 237.558 334.68C241.739 331.439 245.944 328.239 250.185 324.984C251.834 332.837 253.254 333.749 259.773 330.922C258.889 337.955 258.616 344.842 258.741 351.743C259.066 369.444 263.082 386.5 267.337 403.515C272.888 425.698 279.726 447.561 283.388 470.206C283.993 473.974 284.389 477.776 285.007 481.547C285.203 482.787 284.95 483.559 284.02 484.482C276.571 491.827 273.299 500.646 274.707 510.993C274.861 512.122 274.517 512.643 273.704 513.281C268.848 517.024 264.049 520.824 259.004 524.769C258.108 521.264 257.288 517.905 253.664 516.499C250.976 515.456 248.836 516.925 246.664 518.165C246.485 518.056 246.299 517.974 246.103 517.932Z" fill="#2B844E"/>
<path d="M286.115 487.439C286.807 492.726 286.562 498.037 286.322 503.356C286.274 504.492 285.627 505.022 284.883 505.563C283.533 506.531 282.174 507.482 280.752 508.346C279.799 508.921 278.824 510.289 277.873 509.823C276.686 509.248 277.129 507.618 277.186 506.42C277.536 499.623 279.767 493.533 284.454 488.421C284.872 487.948 285.251 487.429 286.115 487.439Z" fill="#2B844E"/>
<path d="M245.679 536.248C246.157 531.545 246.316 527.54 246.192 523.522C246.136 521.667 249.795 519.266 251.79 519.815C254.292 520.505 255.111 522.643 255.843 524.866C256.458 526.718 256.312 528.115 254.542 529.377C251.687 531.417 248.961 533.674 245.679 536.248Z" fill="#2B844E"/>
<path d="M263.145 313.804C262.279 317.91 261.593 322.069 260.454 326.1C259.933 327.945 257.874 329.028 256.065 329.046C254.089 329.051 253.434 327.268 252.995 325.403C252.415 322.954 253.235 321.305 255.153 319.865C257.8 317.881 260.379 315.801 262.983 313.764L263.145 313.804Z" fill="#2B844E"/>
<path d="M223.288 355.136C224.075 351.709 224.768 348.259 225.689 344.866C226.735 341.025 230.822 340.315 233.357 337.888C231.721 344.542 228.262 350.182 223.818 355.298C223.651 355.227 223.471 355.175 223.288 355.136Z" fill="#2B844E"/>
<path d="M223.822 355.306C223.634 355.451 223.442 355.61 223.254 355.755C223.271 355.553 223.275 355.347 223.293 355.145C223.471 355.175 223.65 355.227 223.822 355.306Z" fill="#2B844E"/>
<path d="M246.655 518.171C246.427 518.249 246.2 518.327 245.98 518.401C246.022 518.24 246.07 518.088 246.112 517.928C246.3 517.975 246.485 518.057 246.655 518.171Z" fill="#2B844E"/>
<path d="M262.974 313.749C263.047 313.629 263.112 313.514 263.18 313.387C263.159 313.519 263.143 313.66 263.13 313.788C263.135 313.796 262.974 313.749 262.974 313.749Z" fill="#2B844E"/>
<path d="M142.626 67.6753C149.56 73.3295 155.754 78.4606 162.045 83.4762C184.824 101.618 206.124 121.447 227.985 140.635C229.754 142.185 230.534 144.004 230.775 146.358C232.943 167.495 227.972 187.323 219.242 206.512C209.383 228.166 197.179 248.607 185.586 269.355C172.549 292.696 160.139 316.307 151.543 341.675C146.773 355.734 144.484 370.223 143.168 384.9C143.004 386.695 143.55 389.333 141.791 389.987C140.066 390.632 139.29 387.987 138.133 386.808C115.825 363.897 92.9318 341.551 70.1256 319.136C67.8299 316.883 66.5097 314.542 66.2081 311.063C63.6984 282.274 72.2475 255.72 83.2019 229.581C92.6803 206.96 105.133 185.885 117.409 164.703C126.414 149.155 134.588 133.209 139.93 116.055C144.368 101.833 146.262 87.3282 143.284 72.5696C143.009 71.2581 142.915 69.9196 142.626 67.6753ZM147.367 75.3663C147.071 76.3319 146.918 76.5631 146.946 76.7674C149.108 94.048 145.522 110.564 139.642 126.775C133.58 143.458 124.805 158.83 115.851 174.07C106.284 190.339 96.879 206.672 89.1187 223.878C82.2766 239.044 76.5074 254.594 72.6965 270.747C69.5546 284.093 68.7897 297.69 69.415 311.345C69.4744 312.732 70.0187 313.645 70.988 314.62C81.4429 325.088 91.8076 335.64 102.262 346.108C113.934 357.807 125.674 369.449 137.374 381.13C137.938 381.689 138.316 382.711 139.245 382.43C140.276 382.122 139.804 381.057 139.87 380.307C141.361 362.978 146.115 346.404 152.356 330.218C160.32 309.556 170.698 290.009 181.355 270.606C191.833 251.517 202.837 232.685 212.311 213.075C222.509 191.958 229.818 170.193 227.034 146.333C226.833 144.567 226.363 143.423 225.035 142.264C211.542 130.436 198.227 118.412 184.64 106.684C172.437 96.1566 159.981 85.9522 147.367 75.3663Z" fill="#2B844E"/>
<path d="M147.368 75.3683C159.981 85.9542 172.429 96.1648 184.617 106.689C198.203 118.417 211.518 130.441 225.011 142.269C226.339 143.428 226.8 144.579 227.011 146.338C229.794 170.198 222.495 191.957 212.287 213.08C202.813 232.69 191.818 251.516 181.331 270.611C170.683 290.008 160.297 309.561 152.333 330.223C146.092 346.409 141.337 362.983 139.847 380.312C139.781 381.062 140.252 382.127 139.221 382.435C138.292 382.716 137.909 381.685 137.35 381.135C125.65 369.454 113.916 357.821 102.239 346.113C91.7932 335.639 81.4285 325.087 70.9644 314.625C69.995 313.65 69.4507 312.738 69.3912 311.35C68.7567 297.701 69.5216 284.105 72.6728 270.752C76.4777 254.59 82.2529 239.049 89.095 223.883C96.8553 206.677 106.261 190.344 115.827 174.075C124.781 158.835 133.557 143.463 139.618 126.78C145.507 110.563 149.085 94.053 146.922 76.7725C146.928 76.5591 147.072 76.3339 147.368 75.3683ZM74.6921 311.126C75.2629 311.695 75.6614 312.101 76.0752 312.511C79.5649 315.879 83.0858 319.214 86.5259 322.628C101.754 337.756 116.214 353.636 131.828 368.381C132.523 369.038 133.24 370.296 134.349 369.845C135.397 369.421 135.292 368.024 135.386 367.034C135.913 361.56 137.426 356.318 138.797 350.999C142.155 337.982 146.704 325.389 152.135 313.109C160.084 295.138 169.223 277.75 178.826 260.606C187.53 245.085 196.675 229.812 204.622 213.883C214.248 194.567 221.512 174.676 222.248 152.934C222.352 149.832 221.721 147.51 219.36 145.26C208.061 134.495 196.286 124.237 184.622 113.867C175.113 105.411 165.263 97.3474 155.582 89.0949C155.043 88.6363 154.524 87.9033 153.838 88.2734C153.045 88.7012 153.165 89.6953 153.196 90.5123C153.425 95.9877 152.912 101.4 152.039 106.812C149.999 119.372 145.24 131.056 139.962 142.517C131.489 160.922 120.479 178.004 110.817 195.788C105.908 204.835 100.918 213.857 96.5023 223.131C89.4668 237.9 83.3264 253.065 79.1283 268.869C75.6697 281.874 73.3512 295.061 74.1899 308.577C74.2656 309.482 74.5497 310.382 74.6921 311.126Z" fill="#2B844E"/>
<path d="M74.6897 311.127C74.5414 310.374 74.2633 309.483 74.2029 308.581C73.3549 295.071 75.6826 281.878 79.1413 268.873C83.3393 253.069 89.4797 237.904 96.5152 223.135C100.94 213.855 105.921 204.839 110.83 195.792C120.486 177.999 131.502 160.926 139.975 142.521C145.252 131.06 150.012 119.376 152.052 106.816C152.934 101.398 153.432 95.9827 153.209 90.5164C153.174 89.7146 153.063 88.7145 153.851 88.2775C154.537 87.9074 155.056 88.6404 155.595 89.099C165.276 97.3514 175.132 105.425 184.635 113.872C196.299 124.242 208.068 134.49 219.373 145.265C221.734 147.514 222.371 149.845 222.261 152.939C221.515 174.687 214.261 194.571 204.635 213.888C196.694 229.825 187.543 245.089 178.839 260.61C169.226 277.76 160.087 295.148 152.148 313.113C146.717 325.393 142.168 337.986 138.81 351.003C137.439 356.322 135.926 361.565 135.399 367.038C135.305 368.029 135.41 369.425 134.362 369.849C133.253 370.3 132.536 369.043 131.84 368.385C116.227 353.64 101.767 337.76 86.5388 322.632C83.0987 319.218 79.5686 315.889 76.0881 312.515C75.659 312.102 75.2605 311.696 74.6897 311.127ZM91.0015 320.418C91.9614 321.622 92.9524 322.792 94.59 323.107C101.23 329.791 107.861 336.481 114.495 343.155C113.075 346.191 116.065 347.518 116.956 349.67C121.506 354.254 126.066 358.832 130.964 363.765C131.85 356.774 132.751 350.494 134.476 344.341C135.915 344.838 136.067 343.693 136.652 342.825C138.061 340.765 135.092 339.974 135.554 338.271C137.602 329.369 141.153 320.962 144.591 312.524C154.194 288.957 166.783 266.877 179.58 244.91C190.905 225.476 202.03 205.937 210.028 184.86C211.914 179.884 214.057 174.936 214.549 169.551C215.932 168.423 217.2 167.241 216.331 165.205C217.618 160.569 218.055 155.809 218.593 151.061C218.811 149.165 218.121 147.968 216.77 146.877C212.703 143.598 208.661 140.277 204.616 136.972C203.741 135.412 202.456 134.826 200.69 135.367C194.374 129.766 188.058 124.165 181.733 118.571C180.339 116.016 179.122 113.345 176.871 111.364C176.369 110.921 175.847 110.974 175.295 111.205C170.154 105.515 164.138 100.818 158.034 95.3788C158.025 102.96 157.686 109.775 155.776 116.416C154.286 117.744 154.13 119.207 155.264 120.819C153.273 126.911 151.513 133.073 149.058 139.023C142.845 154.118 134.698 168.241 126.469 182.3C112.936 205.39 100.316 228.903 90.8909 253.976C86.8492 264.732 84.0953 275.836 81.21 286.922C78.1078 287.447 78.1845 289.124 79.5686 291.28C79.0671 295.415 78.737 299.569 78.0124 303.667C77.3443 307.467 78.6867 309.964 81.7278 312.161C85.0967 314.574 88.3492 317.195 91.0015 320.418Z" fill="#2B844E"/>
<path d="M114.499 343.162C107.859 336.478 101.228 329.788 94.5936 323.114C95.9986 319.002 95.5321 314.846 94.866 310.729C93.2903 301.11 88.5885 293.236 81.2321 286.917C84.1235 275.84 86.8713 264.727 90.9131 253.971C100.329 228.904 112.958 205.385 126.491 182.295C134.72 168.236 142.867 154.113 149.08 139.018C151.536 133.068 153.295 126.905 155.287 120.814C156.405 121.43 157.495 122.103 158.642 122.661C164.693 125.609 172.067 124.421 175.747 119.187C177.978 116.013 179.44 115.554 181.755 118.565C188.071 124.166 194.387 129.767 200.712 135.362C196.946 147.128 203.294 162.782 214.565 169.536C214.073 174.921 211.93 179.869 210.044 184.845C202.056 205.916 190.921 225.461 179.596 244.896C166.8 266.863 154.21 288.943 144.607 312.509C141.169 320.947 137.618 329.355 135.571 338.257C134.032 339.146 133.226 337.671 132.223 337.151C124.924 333.41 118.03 335.697 114.499 343.162Z" fill="#2B844E"/>
<path d="M155.785 116.431C157.705 109.785 158.034 102.976 158.044 95.3944C164.147 100.833 170.173 105.525 175.305 111.22C174.766 115.602 172.295 118.489 168.08 119.624C163.436 120.871 159.448 119.111 155.785 116.431Z" fill="#2B844E"/>
<path d="M134.477 344.34C132.76 350.487 131.851 356.773 130.964 363.764C126.067 358.831 121.507 354.253 116.956 349.669C117.81 348.705 117.671 347.5 117.838 346.357C118.465 341.969 121.387 339.547 125.858 339.696C129.524 339.809 132.205 341.718 134.477 344.34Z" fill="#2B844E"/>
<path d="M204.624 136.977C208.67 140.283 212.705 143.595 216.779 146.882C218.129 147.974 218.825 149.18 218.602 151.066C218.055 155.82 217.627 160.574 216.34 165.211C207.119 160.294 201.24 146.126 204.624 136.977Z" fill="#2B844E"/>
<path d="M91.0011 320.416C88.3487 317.193 85.0962 314.572 81.7459 312.146C78.7048 309.95 77.3624 307.453 78.0306 303.653C78.7551 299.555 79.0853 295.401 79.5867 291.266C88.2335 298.18 91.6247 307.474 91.6788 318.272C91.6891 319.037 91.9825 319.931 91.0011 320.416Z" fill="#2B844E"/>
<path d="M204.621 136.981C201.231 146.121 207.11 160.289 216.337 165.215C217.199 167.241 215.941 168.418 214.555 169.56C203.283 162.807 196.93 147.143 200.701 135.386C202.471 134.83 203.746 135.421 204.621 136.981Z" fill="#2B844E"/>
<path d="M91.0027 320.418C91.9841 319.932 91.6908 319.039 91.6805 318.273C91.6171 307.482 88.2292 298.173 79.5884 291.267C78.2042 289.112 78.1275 287.435 81.2298 286.909C88.5861 293.229 93.2819 301.094 94.8636 310.722C95.5391 314.833 96.0055 318.989 94.5912 323.106C92.9536 322.791 91.9686 321.63 91.0027 320.418Z" fill="#2B844E"/>
<path d="M155.788 116.429C159.45 119.109 163.435 120.885 168.092 119.616C172.3 118.472 174.778 115.594 175.317 111.212C175.874 110.991 176.396 110.938 176.892 111.372C179.134 113.359 180.351 116.029 181.754 118.578C179.432 115.558 177.967 116.032 175.746 119.2C172.066 124.434 164.692 125.622 158.641 122.674C157.494 122.116 156.404 121.443 155.285 120.827C154.141 119.221 154.307 117.752 155.788 116.429Z" fill="#2B844E"/>
<path d="M134.48 344.338C132.202 341.708 129.521 339.799 125.865 339.68C121.399 339.54 118.472 341.953 117.844 346.341C117.678 347.484 117.816 348.688 116.963 349.652C116.078 347.51 113.082 346.173 114.502 343.138C118.039 335.681 124.927 333.386 132.207 337.139C133.226 337.662 134.026 339.128 135.555 338.245C135.092 339.947 138.053 340.745 136.653 342.799C136.067 343.705 135.919 344.836 134.48 344.338Z" fill="#2B844E"/>
<path d="M42.2458 527.427C41.5645 523.412 41.0526 520.09 40.4262 516.777C37.7525 502.599 30.8312 490.451 22.125 479.218C3.31035 454.927 -20.0809 435.823 -45.6595 419.208C-64.0544 407.255 -83.4107 397.275 -104.299 390.5C-114.318 387.253 -124.459 384.504 -134.999 383.569C-136.008 383.481 -137.541 383.878 -137.892 382.775C-138.26 381.628 -136.955 380.73 -136.163 379.936C-128.649 372.387 -121.095 364.866 -113.544 357.358C-99.6116 343.494 -85.363 329.929 -73.1974 314.401C-71.8943 312.733 -70.6737 312.276 -68.5046 312.817C-37.9864 320.439 -9.5428 332.844 16.7362 350.246C43.5703 368.011 65.865 390.168 81.6831 418.501C86.4057 426.955 90.4526 435.729 93.9871 444.739C94.6875 446.528 94.8855 448.084 93.6731 449.924C79.121 472.047 64.6855 494.249 50.179 516.409C47.8385 520 45.5003 523.645 42.2458 527.427ZM44.253 519.416C50.4096 511.147 55.6334 502.772 61.0421 494.529C71.052 479.299 80.887 463.952 90.8614 448.701C91.6638 447.471 91.7225 446.442 91.2432 445.191C87.5741 435.641 83.2143 426.388 78.1045 417.561C70.8067 404.955 61.9749 393.396 51.8583 382.932C36.4443 366.98 18.7078 354.078 -0.559809 343.18C-21.6229 331.276 -43.8616 322.455 -67.1769 316.266C-69.9986 315.513 -71.6104 315.874 -72.9157 318.457C-73.5992 319.819 -74.676 320.997 -75.6967 322.161C-89.8196 338.474 -105.537 353.22 -120.768 368.441C-123.843 371.511 -127.055 374.439 -130.146 377.486C-130.884 378.211 -131.721 379.089 -131.549 380.254C-131.396 381.289 -130.335 381.09 -129.631 381.18C-119.469 382.472 -109.618 385.113 -99.963 388.521C-71.4438 398.586 -45.4566 413.403 -21.7148 432.09C-5.26037 445.038 10.2884 459.008 23.1628 475.741C30.8252 485.697 37.4935 496.104 41.1491 508.274C42.1992 511.783 42.419 515.528 44.253 519.416Z" fill="#2B844E"/>
<path d="M44.2518 519.416C42.4228 515.535 42.198 511.783 41.1454 508.253C37.4899 496.083 30.8216 485.676 23.1591 475.721C10.2898 458.995 -5.26403 445.017 -21.7184 432.07C-45.4603 413.382 -71.4474 398.565 -99.9666 388.501C-109.616 385.1 -119.46 382.454 -129.634 381.159C-130.338 381.069 -131.4 381.268 -131.552 380.233C-131.724 379.068 -130.891 378.203 -130.149 377.465C-127.059 374.418 -123.839 371.485 -120.771 368.42C-105.54 353.199 -89.8156 338.448 -75.7004 322.14C-74.6923 320.974 -73.6155 319.795 -72.9193 318.437C-71.614 315.853 -70.0049 315.505 -67.1806 316.246C-43.8602 322.442 -21.6265 331.256 -0.563447 343.159C18.6992 354.049 36.4407 366.959 51.8547 382.912C61.9637 393.381 70.803 404.934 78.1009 417.54C83.2106 426.368 87.5705 435.62 91.2396 445.171C91.7189 446.421 91.6602 447.451 90.8578 448.681C80.8834 463.932 71.0433 479.271 61.0385 494.508C55.6271 502.764 50.4084 511.147 44.2518 519.416ZM-122.026 377.348C-115.375 378.79 -109.289 380.403 -103.199 382.091C-88.3118 386.227 -74.3592 392.595 -60.8488 399.891C-36.2323 413.182 -14.0906 429.975 6.26855 449.191C15.8255 458.214 24.7819 467.774 32.4024 478.484C37.768 486.032 41.7407 494.392 45.0278 503.058C45.4317 504.126 45.4234 505.751 46.7225 505.848C47.6759 505.918 48.197 504.476 48.8042 503.616C56.0807 493.215 62.7792 482.432 69.645 471.77C74.5752 464.116 79.855 456.696 84.5191 448.852C85.6838 446.889 85.8451 445.198 85.0038 443.127C82.1834 436.193 79.2024 429.332 75.4004 422.887C68.5399 411.284 60.5156 400.475 51.37 390.609C37.1937 375.311 20.8603 362.582 3.07216 351.806C-9.42212 344.242 -22.4762 337.727 -36.0832 332.389C-45.6773 328.621 -55.4502 325.466 -65.4581 323.038C-66.8603 322.7 -67.865 322.719 -69.0058 323.983C-76.72 332.478 -84.6899 340.734 -93.0115 348.636C-98.7416 354.082 -104.464 359.522 -110.1 365.061C-114.08 368.954 -118.255 372.667 -122.026 377.348Z" fill="#2B844E"/>
<path d="M-122.024 377.349C-118.254 372.668 -114.087 368.961 -110.112 365.06C-104.475 359.521 -98.7529 354.08 -93.0228 348.634C-84.7012 340.732 -76.7314 332.477 -69.0171 323.981C-67.8712 322.725 -66.8716 322.698 -65.4694 323.037C-55.4615 325.465 -45.6963 328.625 -36.0945 332.387C-22.4875 337.725 -9.43343 344.24 3.06086 351.805C20.8489 362.58 37.1824 375.31 51.3587 390.607C60.5043 400.473 68.5286 411.282 75.3891 422.885C79.1988 429.326 82.1798 436.187 84.9925 443.125C85.8389 445.204 85.6853 446.891 84.5078 448.851C79.8514 456.689 74.5638 464.115 69.6337 471.769C62.7603 482.435 56.0744 493.221 48.7929 503.614C48.1908 504.482 47.6646 505.917 46.7112 505.847C45.4121 505.75 45.4205 504.125 45.0165 503.056C41.7295 494.391 37.7567 486.031 32.3911 478.483C24.7757 467.781 15.8218 458.208 6.25724 449.189C-14.1019 429.973 -36.2435 413.18 -60.8601 399.89C-74.3705 392.594 -88.3232 386.226 -103.211 382.089C-109.28 380.399 -115.373 378.791 -122.024 377.349ZM69.6436 425.401C70.2647 424.796 70.0235 424.227 69.653 423.577C66.4921 418.078 62.2412 413.337 58.7715 408.051C58.398 407.48 57.8901 407.339 57.2682 407.592C53.1028 402.563 48.8147 397.647 44.3095 392.918C25.9549 373.624 4.33423 358.88 -19.1409 346.683C-28.1328 342.014 -37.5157 338.219 -46.7315 334.06C-47.7007 332.128 -47.863 329.073 -51.371 330.73C-53.6253 329.925 -55.8745 329.128 -58.1212 328.318C-65.7723 325.548 -65.823 325.504 -70.8018 331.747C-71.9332 333.159 -73.8889 334.131 -73.8114 336.371C-74.868 337.096 -76.3199 337.517 -76.0237 339.273C-76.783 339.549 -77.2136 340.195 -77.7328 340.755C-83.29 346.715 -89.0268 352.485 -95.1204 357.893C-97.8505 359.603 -100.742 361.099 -102.661 363.83C-106.173 367.153 -109.684 370.475 -113.474 374.057C-106.836 375.496 -100.642 376.707 -94.6658 378.756C-93.6382 379.724 -92.5125 380.409 -91.0222 379.929C-84.0419 382.092 -77.2112 384.66 -70.656 387.894C-34.6433 405.667 -2.78499 429.122 24.3383 458.892C30.117 465.233 35.456 472.005 39.0087 479.957C38.8954 481.705 39.1034 483.31 40.9863 484.115C44.2837 488.302 45.2155 493.552 47.2546 498.607C50.0822 494.256 52.17 489.861 55.1602 486.042C56.8895 485.076 58.2839 483.965 56.8737 481.727C57.3991 480.943 57.955 480.171 58.4627 479.376C62.2886 473.293 65.7038 466.95 69.8592 461.069C71.0404 461.353 70.8402 460.713 70.5437 460.026C70.5802 459.848 70.6851 459.724 70.8507 459.66C72.0551 458.894 73.0768 458.049 72.4648 456.379C75.2901 452.492 78.0798 448.585 80.9684 444.745C81.6956 443.785 81.1497 443.117 80.8051 442.374C78.6042 437.623 76.3727 432.893 73.5649 428.452C73.2395 426.451 72.6216 424.939 70.2306 426.481C70.0138 426.117 69.8224 425.757 69.6436 425.401Z" fill="#2B844E"/>
<path d="M-98.3755 356.549C-91.9897 350.907 -85.9649 344.887 -80.1416 338.682C-79.5888 338.093 -79.1437 337.427 -78.3508 337.136C-68.2927 340.042 -58.8279 339.262 -50.4137 332.348C-49.579 331.666 -48.9017 331.075 -47.8002 331.535C-38.2244 335.766 -28.4799 339.627 -19.1571 344.399C5.20301 356.854 27.6051 371.963 46.5885 391.795C51.2462 396.658 55.6763 401.715 59.9779 406.89C61.296 408.694 63.5853 410.318 64.9035 412.123C67.196 417.409 71.2372 421.47 74.205 426.337C72.5263 429.331 69.8829 432.935 69.3933 436.365C68.1466 444.966 69.2759 453.125 73.7178 460.682C73.5316 460.747 73.4294 460.871 73.3953 461.063C73.1525 461.426 72.9097 461.79 72.6749 462.148C68.3041 468.265 64.701 474.856 60.6721 481.181C60.1427 482.015 59.5662 482.812 59 483.626C53.566 475.549 47.8018 474.974 40.6788 481.78C40.6091 481.848 40.0173 482.19 39.932 482.235C36.2979 474.024 30.7787 467.058 24.8065 460.536C-3.22492 429.919 -35.7458 405.565 -73.1282 387.422C-79.9317 384.123 -87.027 381.514 -94.2812 379.326C-88.5565 373.163 -90.0568 365.031 -98.0956 360.089C-100.312 358.713 -100.413 357.928 -98.3755 356.549Z" fill="#2B844E"/>
<path d="M73.5434 428.446C76.3462 432.879 79.2915 436.867 81.5 441.612C81.8497 442.364 81.5158 445.42 80.7886 446.381C77.9 450.221 75.1412 454.606 72.316 458.493C71.5682 456.03 70.6806 451.49 70.2561 448.97C69.0139 441.775 68.8571 434.685 73.5434 428.446Z" fill="#2B844E"/>
<path d="M59.3161 484.645C54.5793 490.744 51.2887 497.778 46.8166 504.733C43.5044 496.589 41.9621 488.175 36.6698 481.416C41.7076 471.446 50.6679 470.871 56.9653 480.15C57.9085 481.538 58.5434 483.146 59.3161 484.645Z" fill="#2B844E"/>
<path d="M74.846 427.28C70.1674 433.514 69.0172 441.769 70.2467 448.961C70.6788 451.476 71.6938 453.896 72.4339 456.364C73.0459 458.034 72.0166 458.884 70.8199 459.645C66.5036 452.314 65.3565 444.428 66.503 436.122C66.9626 432.814 68.2776 429.828 69.8692 426.947C69.982 426.785 70.087 426.628 70.1998 426.466C72.5882 424.936 74.513 425.284 74.846 427.28Z" fill="#2B844E"/>
<path d="M55.1343 486.036C54.6559 485.104 54.2643 484.105 53.6787 483.243C49.7611 477.49 44.1461 477.882 40.9604 484.109C39.0851 483.298 38.8695 481.699 38.9828 479.95C39.0644 479.908 39.1688 479.884 39.2353 479.818C46.0289 473.291 51.5676 473.885 56.8401 481.725C58.2553 483.971 56.8636 485.069 55.1343 486.036Z" fill="#2B844E"/>
<path d="M61.0999 412.86C59.822 411.108 58.5391 409.348 57.2612 407.596C57.8831 407.343 58.391 407.484 58.7645 408.055C62.2342 413.341 66.48 418.075 69.646 423.581C70.0165 424.231 70.2577 424.8 69.6366 425.405C66.797 421.216 63.9548 417.039 61.0999 412.86Z" fill="#2B844E"/>
<path d="M69.8272 461.066C70.0579 460.717 70.2886 460.367 70.5116 460.023C70.8082 460.71 71.0084 461.35 69.8272 461.066Z" fill="#2B844E"/>
</g>
</g>
<defs>
<clipPath id="clip0_1147_3342">
<rect width="375" height="815.299" rx="37.3134" fill="white"/>
</clipPath>
<clipPath id="clip1_1147_3342">
<rect width="993.45" height="1148.6" fill="white" transform="translate(-369.713 219.042) rotate(-33.1998)"/>
</clipPath>
</defs>
</svg>
