<svg width="50" height="24" viewBox="0 0 50 24" fill="none" xmlns="http://www.w3.org/2000/svg">
<mask id="path-1-outside-1_48_9966" maskUnits="userSpaceOnUse" x="-0.84082" y="-0.0478516" width="51" height="24" fill="black">
<rect fill="white" x="-0.84082" y="-0.0478516" width="51" height="24"/>
<path d="M12.8202 10.9923H7.79363C7.77585 11.1612 7.75807 11.3212 7.74029 11.4723C7.73141 11.6146 7.72696 11.7746 7.72696 11.9523C7.72696 12.1301 7.73141 12.2945 7.74029 12.4457C7.75807 12.5879 7.77585 12.7434 7.79363 12.9123H12.6069L12.4069 14.6589H8.23362C8.54472 15.4945 8.99805 16.2234 9.59359 16.8456C10.198 17.4589 10.9225 17.9344 11.7669 18.2722C12.6202 18.6011 13.5713 18.7655 14.6202 18.7655V22.3521C12.7446 22.3521 11.0602 22.0366 9.56693 21.4055C8.08251 20.7744 6.84698 19.8811 5.86033 18.7255C4.88257 17.57 4.20702 16.2145 3.8337 14.6589H1.7404L1.9404 12.9123H3.5937C3.56704 12.7168 3.54481 12.5434 3.52704 12.3923C3.51815 12.2412 3.5137 12.0679 3.5137 11.8723C3.5137 11.7212 3.51815 11.5746 3.52704 11.4323C3.53593 11.2901 3.54926 11.1435 3.56704 10.9923H1.7404L1.9404 9.24571H3.8337C4.20702 7.68129 4.88257 6.32576 5.86033 5.17912C6.84698 4.02358 8.08251 3.13026 9.56693 2.49917C11.0602 1.86807 12.7446 1.55252 14.6202 1.55252V5.13912C13.5713 5.13912 12.6202 5.308 11.7669 5.64578C10.9225 5.97466 10.198 6.44576 9.59359 7.05908C8.99805 7.67241 8.54472 8.40128 8.23362 9.24571H13.0202L12.8202 10.9923ZM31.2124 21.9521H18.466V19.5389C20.0393 18.1344 21.3592 16.8945 22.4259 15.8189C23.5014 14.7434 24.3592 13.7834 24.9992 12.939C25.6392 12.0945 26.1014 11.3212 26.3858 10.619C26.6703 9.90792 26.8125 9.21904 26.8125 8.55239C26.8125 7.86796 26.6836 7.26797 26.4258 6.75242C26.1769 6.23688 25.8214 5.83688 25.3592 5.55244C24.9059 5.268 24.377 5.12578 23.7725 5.12578C23.0792 5.12578 22.4081 5.32578 21.7592 5.72577C21.1104 6.11688 20.5593 6.65909 20.1059 7.35241L18.026 4.73912C18.8082 3.72581 19.7771 2.9436 20.9326 2.3925C22.097 1.83251 23.3059 1.55252 24.5592 1.55252C25.7503 1.55252 26.8347 1.80584 27.8125 2.3125C28.7902 2.81916 29.568 3.53915 30.1458 4.47246C30.7235 5.40578 31.0124 6.50798 31.0124 7.77907C31.0124 8.66794 30.8569 9.5657 30.5458 10.4724C30.2435 11.3701 29.7991 12.2634 29.2124 13.1523C28.6347 14.0412 27.9236 14.9256 27.0791 15.8056C26.2436 16.6767 25.2881 17.53 24.2125 18.3655H31.2124V21.9521ZM34.4715 19.8855L36.5915 16.5522C36.9382 17.2189 37.4582 17.7567 38.1515 18.1655C38.8448 18.5655 39.5959 18.7655 40.4048 18.7655C41.107 18.7655 41.7292 18.6144 42.2714 18.3122C42.8136 18.01 43.2358 17.5922 43.5381 17.0589C43.8492 16.5167 44.0047 15.8989 44.0047 15.2056C44.0047 14.5034 43.8492 13.8856 43.5381 13.3523C43.2358 12.819 42.8092 12.4012 42.2581 12.099C41.707 11.7968 41.0803 11.6457 40.3781 11.6457C39.8448 11.6457 39.3426 11.739 38.8715 11.9257C38.4004 12.1123 37.9782 12.3834 37.6048 12.739L35.6182 11.579L36.4982 1.95251H47.018V5.53911H40.2581L39.8181 9.7657C40.4137 9.59682 41.0448 9.51237 41.7114 9.51237C42.9558 9.51237 44.0669 9.77903 45.0447 10.3124C46.0225 10.8457 46.7913 11.5746 47.3513 12.499C47.9202 13.4234 48.2046 14.4856 48.2046 15.6856C48.2046 16.9656 47.8802 18.1078 47.2313 19.1122C46.5913 20.1166 45.7113 20.9077 44.5914 21.4855C43.4803 22.0633 42.2047 22.3521 40.7648 22.3521C39.5648 22.3521 38.4137 22.1388 37.3115 21.7122C36.2182 21.2766 35.2715 20.6677 34.4715 19.8855Z"/>
</mask>
<path d="M12.8202 10.9923V12.5448H14.205L14.3625 11.1689L12.8202 10.9923ZM7.79363 10.9923V9.43993H6.39605L6.24974 10.8298L7.79363 10.9923ZM7.74029 11.4723L6.19851 11.291L6.19355 11.3331L6.1909 11.3755L7.74029 11.4723ZM7.74029 12.4457L6.19056 12.5368L6.19355 12.5877L6.19987 12.6382L7.74029 12.4457ZM7.79363 12.9123L6.24974 13.0748L6.39605 14.4647H7.79363V12.9123ZM12.6069 12.9123L14.1492 13.0889L14.3472 11.3599H12.6069V12.9123ZM12.4069 14.6589V16.2114H13.7917L13.9492 14.8356L12.4069 14.6589ZM8.23362 14.6589V13.1065H5.99906L6.77878 15.2006L8.23362 14.6589ZM9.59359 16.8456L8.4721 17.919L8.47994 17.9272L8.48789 17.9353L9.59359 16.8456ZM11.7669 18.2722L11.1903 19.7136L11.1994 19.7172L11.2086 19.7208L11.7669 18.2722ZM14.6202 18.7655H16.1726V17.2131H14.6202V18.7655ZM14.6202 22.3521V23.9046H16.1726V22.3521H14.6202ZM9.56693 21.4055L8.95953 22.8342L8.9626 22.8354L9.56693 21.4055ZM5.86033 18.7255L4.67522 19.7283L4.67973 19.7336L5.86033 18.7255ZM3.8337 14.6589L5.34325 14.2967L5.05762 13.1065H3.8337V14.6589ZM1.7404 14.6589L0.198064 14.4823L8.51154e-05 16.2114H1.7404V14.6589ZM1.9404 12.9123V11.3599H0.555597L0.398061 12.7357L1.9404 12.9123ZM3.5937 12.9123V14.4647H5.37218L5.13188 12.7026L3.5937 12.9123ZM3.52704 12.3923L1.9773 12.4835L1.97996 12.5287L1.98525 12.5737L3.52704 12.3923ZM3.56704 10.9923L5.10882 11.1737L5.3128 9.43993H3.56704V10.9923ZM1.7404 10.9923L0.198064 10.8157L8.51154e-05 12.5448H1.7404V10.9923ZM1.9404 9.24571V7.69329H0.555597L0.398061 9.06911L1.9404 9.24571ZM3.8337 9.24571V10.7981H5.05924L5.34371 9.60606L3.8337 9.24571ZM5.86033 5.17912L4.67972 4.17106L4.67906 4.17184L5.86033 5.17912ZM9.56693 2.49916L8.9626 1.0692L8.95953 1.07051L9.56693 2.49916ZM14.6202 1.55252H16.1726V9.91821e-05H14.6202V1.55252ZM14.6202 5.13912V6.69153H16.1726V5.13912H14.6202ZM11.7669 5.64577L12.3303 7.09237L12.3383 7.08922L11.7669 5.64577ZM9.59359 7.05908L8.48786 5.96937L8.47985 5.97762L9.59359 7.05908ZM8.23362 9.24571L6.77692 8.70903L6.00725 10.7981H8.23362V9.24571ZM13.0202 9.24571L14.5625 9.42231L14.7605 7.69329H13.0202V9.24571ZM12.8202 10.9923V9.43993H7.79363V10.9923V12.5448H12.8202V10.9923ZM7.79363 10.9923L6.24974 10.8298C6.23255 10.9931 6.21547 11.1468 6.19851 11.291L7.74029 11.4723L9.28208 11.6537C9.30067 11.4957 9.31915 11.3293 9.33751 11.1549L7.79363 10.9923ZM7.74029 11.4723L6.1909 11.3755C6.17958 11.5567 6.17455 11.7498 6.17455 11.9523H7.72696H9.27938C9.27938 11.7993 9.28323 11.6724 9.28969 11.5692L7.74029 11.4723ZM7.72696 11.9523H6.17455C6.17455 12.1554 6.17961 12.3507 6.19056 12.5368L7.74029 12.4457L9.29003 12.3545C9.2832 12.2384 9.27938 12.1048 9.27938 11.9523H7.72696ZM7.74029 12.4457L6.19987 12.6382C6.21619 12.7688 6.23283 12.9142 6.24974 13.0748L7.79363 12.9123L9.33751 12.7498C9.31887 12.5727 9.29995 12.4069 9.28072 12.2531L7.74029 12.4457ZM7.79363 12.9123V14.4647H12.6069V12.9123V11.3599H7.79363V12.9123ZM12.6069 12.9123L11.0645 12.7357L10.8645 14.4823L12.4069 14.6589L13.9492 14.8356L14.1492 13.0889L12.6069 12.9123ZM12.4069 14.6589V13.1065H8.23362V14.6589V16.2114H12.4069V14.6589ZM8.23362 14.6589L6.77878 15.2006C7.16099 16.2271 7.72523 17.1387 8.4721 17.919L9.59359 16.8456L10.7151 15.7721C10.2709 15.308 9.92846 14.7618 9.68846 14.1173L8.23362 14.6589ZM9.59359 16.8456L8.48789 17.9353C9.25093 18.7095 10.1585 19.3009 11.1903 19.7136L11.7669 18.2722L12.3434 16.8308C11.6864 16.568 11.1451 16.2083 10.6993 15.7559L9.59359 16.8456ZM11.7669 18.2722L11.2086 19.7208C12.2642 20.1276 13.4081 20.318 14.6202 20.318V18.7655V17.2131C13.7345 17.2131 12.9762 17.0746 12.3252 16.8237L11.7669 18.2722ZM14.6202 18.7655H13.0678V22.3521H14.6202H16.1726V18.7655H14.6202ZM14.6202 22.3521V20.7997C12.92 20.7997 11.4457 20.5141 10.1713 19.9755L9.56693 21.4055L8.9626 22.8354C10.6748 23.559 12.5693 23.9046 14.6202 23.9046V22.3521ZM9.56693 21.4055L10.1743 19.9768C8.89699 19.4338 7.86206 18.6792 7.04093 17.7175L5.86033 18.7255L4.67973 19.7336C5.83189 21.083 7.26804 22.115 8.95953 22.8342L9.56693 21.4055ZM5.86033 18.7255L7.04542 17.7228C6.23327 16.763 5.66326 15.63 5.34325 14.2967L3.8337 14.6589L2.32415 15.0212C2.75079 16.7989 3.53186 18.3771 4.67524 19.7283L5.86033 18.7255ZM3.8337 14.6589V13.1065H1.7404V14.6589V16.2114H3.8337V14.6589ZM1.7404 14.6589L3.28274 14.8356L3.48274 13.0889L1.9404 12.9123L0.398061 12.7357L0.198064 14.4823L1.7404 14.6589ZM1.9404 12.9123V14.4647H3.5937V12.9123V11.3599H1.9404V12.9123ZM3.5937 12.9123L5.13188 12.7026C5.10615 12.5139 5.08521 12.3503 5.06882 12.2109L3.52704 12.3923L1.98525 12.5737C2.00441 12.7366 2.02792 12.9197 2.05552 13.1221L3.5937 12.9123ZM3.52704 12.3923L5.07677 12.3012C5.0701 12.1876 5.06612 12.0457 5.06612 11.8723H3.5137H1.96129C1.96129 12.09 1.9662 12.2948 1.9773 12.4835L3.52704 12.3923ZM3.5137 11.8723H5.06612C5.06612 11.7516 5.06967 11.6373 5.07643 11.5292L3.52704 11.4323L1.97764 11.3355C1.96662 11.5118 1.96129 11.6908 1.96129 11.8723H3.5137ZM3.52704 11.4323L5.07643 11.5292C5.08344 11.417 5.09413 11.2986 5.10882 11.1737L3.56704 10.9923L2.02525 10.811C2.00439 10.9883 1.98841 11.1632 1.97764 11.3355L3.52704 11.4323ZM3.56704 10.9923V9.43993H1.7404V10.9923V12.5448H3.56704V10.9923ZM1.7404 10.9923L3.28274 11.1689L3.48274 9.42231L1.9404 9.24571L0.398061 9.06911L0.198064 10.8157L1.7404 10.9923ZM1.9404 9.24571V10.7981H3.8337V9.24571V7.69329H1.9404V9.24571ZM3.8337 9.24571L5.34371 9.60606C5.66403 8.26376 6.23362 7.13393 7.04159 6.1864L5.86033 5.17912L4.67906 4.17184C3.53152 5.5176 2.75002 7.09883 2.32368 8.88536L3.8337 9.24571ZM5.86033 5.17912L7.04093 6.18717C7.86206 5.22548 8.89699 4.47088 10.1743 3.92782L9.56693 2.49916L8.95953 1.07051C7.26804 1.78965 5.83189 2.82168 4.67973 4.17106L5.86033 5.17912ZM9.56693 2.49916L10.1713 3.92912C11.4457 3.39052 12.92 3.10493 14.6202 3.10493V1.55252V9.91821e-05C12.5693 9.91821e-05 10.6748 0.345615 8.9626 1.06921L9.56693 2.49916ZM14.6202 1.55252H13.0678V5.13912H14.6202H16.1726V1.55252H14.6202ZM14.6202 5.13912V3.5867C13.4034 3.5867 12.2548 3.78303 11.1955 4.20233L11.7669 5.64577L12.3383 7.08922C12.9856 6.83298 13.7392 6.69153 14.6202 6.69153V5.13912ZM11.7669 5.64577L11.2035 4.1992C10.1661 4.60325 9.25392 5.1921 8.48789 5.9694L9.59359 7.05908L10.6993 8.14877C11.1421 7.69942 11.6789 7.34606 12.3303 7.09235L11.7669 5.64577ZM9.59359 7.05908L8.47985 5.97762C7.72526 6.75473 7.15899 7.67197 6.77692 8.70903L8.23362 9.24571L9.69032 9.78239C9.93045 9.13059 10.2708 8.59008 10.7073 8.14055L9.59359 7.05908ZM8.23362 9.24571V10.7981H13.0202V9.24571V7.69329H8.23362V9.24571ZM13.0202 9.24571L11.4779 9.06911L11.2779 10.8157L12.8202 10.9923L14.3625 11.1689L14.5625 9.42231L13.0202 9.24571ZM31.2124 21.9521V23.5046H32.7648V21.9521H31.2124ZM18.466 21.9521H16.9136V23.5046H18.466V21.9521ZM18.466 19.5389L17.4322 18.3807L16.9136 18.8437V19.5389H18.466ZM22.4259 15.8189L21.3282 14.7212L21.3236 14.7258L22.4259 15.8189ZM26.3858 10.619L27.8247 11.2019L27.8272 11.1956L26.3858 10.619ZM26.4258 6.75242L25.0278 7.42733L25.0325 7.43704L25.0373 7.44668L26.4258 6.75242ZM25.3592 5.55244L24.534 6.86749L24.5456 6.87457L25.3592 5.55244ZM21.7592 5.72577L22.5606 7.05535L22.5673 7.05135L22.5739 7.04728L21.7592 5.72577ZM20.1059 7.35241L18.8913 8.31917L20.2294 10.0004L21.4053 8.20197L20.1059 7.35241ZM18.026 4.73912L16.7971 3.79052L16.0535 4.75378L16.8113 5.70588L18.026 4.73912ZM20.9326 2.3925L21.6009 3.79372L21.6054 3.79154L20.9326 2.3925ZM30.1458 4.47246L31.4657 3.65534L30.1458 4.47246ZM30.5457 10.4724L29.0774 9.96849L29.0745 9.97707L30.5457 10.4724ZM29.2124 13.1523L27.9167 12.2971L27.9108 12.3063L29.2124 13.1523ZM27.0791 15.8056L25.959 14.7307L25.9588 14.731L27.0791 15.8056ZM24.2125 18.3655L23.2601 17.1396L19.6837 19.918H24.2125V18.3655ZM31.2124 18.3655H32.7648V16.8131H31.2124V18.3655ZM31.2124 21.9521V20.3997H18.466V21.9521V23.5046H31.2124V21.9521ZM18.466 21.9521H20.0184V19.5389H18.466H16.9136V21.9521H18.466ZM18.466 19.5389L19.4998 20.697C21.0882 19.279 22.4327 18.0167 23.5282 16.9121L22.4259 15.8189L21.3236 14.7258C20.2858 15.7722 18.9903 16.9898 17.4322 18.3807L18.466 19.5389ZM22.4259 15.8189L23.5236 16.9166C24.6297 15.8106 25.5396 14.796 26.2364 13.8767L24.9992 12.939L23.762 12.0013C23.1787 12.7708 22.3732 13.6762 21.3282 14.7212L22.4259 15.8189ZM24.9992 12.939L26.2364 13.8767C26.9288 12.963 27.4731 12.0698 27.8247 11.2018L26.3858 10.619L24.947 10.0362C24.7297 10.5727 24.3495 11.2261 23.762 12.0013L24.9992 12.939ZM26.3858 10.619L27.8272 11.1956C28.1742 10.3281 28.3649 9.44368 28.3649 8.55239H26.8125H25.2601C25.2601 8.99441 25.1663 9.48773 24.9444 10.0425L26.3858 10.619ZM26.8125 8.55239H28.3649C28.3649 7.67181 28.1983 6.82609 27.8143 6.05816L26.4258 6.75242L25.0373 7.44668C25.1689 7.70985 25.2601 8.06411 25.2601 8.55239H26.8125ZM26.4258 6.75242L27.8239 6.07751C27.4534 5.31019 26.9018 4.67893 26.1728 4.23032L25.3592 5.55244L24.5456 6.87457C24.741 6.99483 24.9005 7.16356 25.0278 7.42733L26.4258 6.75242ZM25.3592 5.55244L26.1843 4.23745C25.4528 3.77847 24.63 3.57337 23.7725 3.57337V5.12578V6.6782C24.1239 6.6782 24.3589 6.75754 24.5341 6.86744L25.3592 5.55244ZM23.7725 5.12578V3.57337C22.7633 3.57337 21.8132 3.86882 20.9446 4.40427L21.7592 5.72577L22.5739 7.04728C23.003 6.78274 23.3951 6.6782 23.7725 6.6782V5.12578ZM21.7592 5.72577L20.9579 4.3962C20.0909 4.91875 19.3756 5.63263 18.8066 6.50285L20.1059 7.35241L21.4053 8.20197C21.7429 7.68555 22.1298 7.31501 22.5606 7.05535L21.7592 5.72577ZM20.1059 7.35241L21.3206 6.38565L19.2406 3.77236L18.026 4.73912L16.8113 5.70588L18.8913 8.31917L20.1059 7.35241ZM18.026 4.73912L19.2549 5.68773C19.8883 4.86718 20.6651 4.24001 21.6009 3.79372L20.9326 2.3925L20.2643 0.991283C18.889 1.64719 17.7281 2.58444 16.7971 3.79052L18.026 4.73912ZM20.9326 2.3925L21.6054 3.79154C22.5666 3.32929 23.5461 3.10493 24.5592 3.10493V1.55252V9.91821e-05C23.0656 9.91821e-05 21.6274 0.335735 20.2598 0.993462L20.9326 2.3925ZM24.5592 1.55252V3.10493C25.5224 3.10493 26.3589 3.30774 27.0982 3.69086L27.8125 2.3125L28.5267 0.934149C27.3105 0.303944 25.9781 9.91821e-05 24.5592 9.91821e-05V1.55252ZM27.8125 2.3125L27.0982 3.69086C27.828 4.06899 28.3961 4.59541 28.8258 5.28959L30.1458 4.47246L31.4657 3.65534C30.7399 2.48288 29.7525 1.56933 28.5267 0.934149L27.8125 2.3125ZM30.1458 4.47246L28.8258 5.28959C29.2289 5.94073 29.46 6.75022 29.46 7.77907H31.0124H32.5648C32.5648 6.26574 32.2182 4.87082 31.4657 3.65534L30.1458 4.47246ZM31.0124 7.77907H29.46C29.46 8.48355 29.3372 9.21129 29.0774 9.9685L30.5457 10.4724L32.0141 10.9762C32.3765 9.92012 32.5648 8.85233 32.5648 7.77907H31.0124ZM30.5457 10.4724L29.0745 9.97707C28.8199 10.7332 28.4386 11.5065 27.9168 12.2972L29.2124 13.1523L30.5081 14.0074C31.1596 13.0203 31.6671 12.007 32.017 10.9676L30.5457 10.4724ZM29.2124 13.1523L27.9108 12.3063C27.3935 13.1022 26.7457 13.9109 25.959 14.7307L27.0791 15.8056L28.1993 16.8805C29.1014 15.9403 29.8759 14.9802 30.5141 13.9984L29.2124 13.1523ZM27.0791 15.8056L25.9588 14.731C25.1816 15.5412 24.2835 16.3446 23.2601 17.1396L24.2125 18.3655L25.1649 19.5915C26.2926 18.7154 27.3056 17.8122 28.1995 16.8802L27.0791 15.8056ZM24.2125 18.3655V19.918H31.2124V18.3655V16.8131H24.2125V18.3655ZM31.2124 18.3655H29.66V21.9521H31.2124H32.7648V18.3655H31.2124ZM34.4715 19.8855L33.1616 19.0524L32.4858 20.1151L33.3862 20.9955L34.4715 19.8855ZM36.5915 16.5522L37.9688 15.836L36.7266 13.4471L35.2816 15.7191L36.5915 16.5522ZM38.1515 18.1656L37.3629 19.5027L37.3693 19.5065L37.3757 19.5102L38.1515 18.1656ZM42.2714 18.3122L43.0272 19.6682L42.2714 18.3122ZM43.5381 17.0589L42.1915 16.2863L42.1874 16.2935L43.5381 17.0589ZM43.5381 13.3523L42.1874 14.1177L42.1922 14.1261L42.1971 14.1345L43.5381 13.3523ZM37.6048 12.739L36.822 14.0796L37.8301 14.6682L38.6755 13.8631L37.6048 12.739ZM35.6182 11.579L34.0722 11.4377L33.9823 12.4215L34.8354 12.9196L35.6182 11.579ZM36.4982 1.95251V0.400093H35.0812L34.9522 1.81119L36.4982 1.95251ZM47.018 1.95251H48.5704V0.400093H47.018V1.95251ZM47.018 5.53911V7.09153H48.5704V5.53911H47.018ZM40.2581 5.53911V3.98669H38.8589L38.714 5.37837L40.2581 5.53911ZM39.8181 9.7657L38.274 9.60496L38.0367 11.8845L40.2417 11.2592L39.8181 9.7657ZM47.3513 12.499L46.0235 13.3033L46.0292 13.3126L47.3513 12.499ZM47.2313 19.1122L45.9273 18.2698L45.9221 18.278L47.2313 19.1122ZM44.5914 21.4855L43.8796 20.1058L43.8752 20.1082L44.5914 21.4855ZM37.3115 21.7122L36.737 23.1543L36.744 23.1572L36.7511 23.1599L37.3115 21.7122ZM34.4715 19.8855L35.7815 20.7186L37.9014 17.3854L36.5915 16.5522L35.2816 15.7191L33.1616 19.0524L34.4715 19.8855ZM36.5915 16.5522L35.2142 17.2685C35.7047 18.2117 36.4376 18.9571 37.3629 19.5027L38.1515 18.1656L38.9401 16.8284C38.4787 16.5563 38.1717 16.2261 37.9688 15.836L36.5915 16.5522ZM38.1515 18.1656L37.3757 19.5102C38.3075 20.0478 39.3266 20.318 40.4048 20.318V18.7655V17.2131C39.8652 17.2131 39.3821 17.0833 38.9273 16.8209L38.1515 18.1656ZM40.4048 18.7655V20.318C41.3363 20.318 42.2249 20.1154 43.0272 19.6682L42.2714 18.3122L41.5156 16.9562C41.2334 17.1135 40.8777 17.2131 40.4048 17.2131V18.7655ZM42.2714 18.3122L43.0272 19.6682C43.8148 19.2292 44.4442 18.6086 44.8887 17.8243L43.5381 17.0589L42.1874 16.2935C42.0274 16.5759 41.8124 16.7908 41.5156 16.9562L42.2714 18.3122ZM43.5381 17.0589L44.8846 17.8315C45.3449 17.0292 45.5571 16.1397 45.5571 15.2056H44.0047H42.4523C42.4523 15.6581 42.3534 16.0042 42.1915 16.2863L43.5381 17.0589ZM44.0047 15.2056H45.5571C45.5571 14.267 45.3468 13.372 44.879 12.5701L43.5381 13.3523L42.1971 14.1345C42.3516 14.3993 42.4523 14.7398 42.4523 15.2056H44.0047ZM43.5381 13.3523L44.8887 12.5869C44.4406 11.7961 43.8017 11.175 43.0045 10.7378L42.2581 12.099L41.5116 13.4602C41.8167 13.6274 42.0311 13.8418 42.1874 14.1177L43.5381 13.3523ZM42.2581 12.099L43.0045 10.7378C42.1988 10.296 41.3101 10.0933 40.3781 10.0933V11.6457V13.1981C40.8505 13.1981 41.2151 13.2976 41.5116 13.4602L42.2581 12.099ZM40.3781 11.6457V10.0933C39.6594 10.0933 38.9622 10.2199 38.2996 10.4824L38.8715 11.9257L39.4433 13.3689C39.723 13.2581 40.0302 13.1981 40.3781 13.1981V11.6457ZM38.8715 11.9257L38.2996 10.4824C37.6401 10.7437 37.0492 11.1243 36.5342 11.6148L37.6048 12.739L38.6755 13.8631C38.9071 13.6425 39.1607 13.4809 39.4433 13.3689L38.8715 11.9257ZM37.6048 12.739L38.3876 11.3984L36.401 10.2384L35.6182 11.579L34.8354 12.9196L36.822 14.0796L37.6048 12.739ZM35.6182 11.579L37.1642 11.7203L38.0441 2.09383L36.4982 1.95251L34.9522 1.81119L34.0722 11.4377L35.6182 11.579ZM36.4982 1.95251V3.50492H47.018V1.95251V0.400093H36.4982V1.95251ZM47.018 1.95251H45.4656V5.53911H47.018H48.5704V1.95251H47.018ZM47.018 5.53911V3.98669H40.2581V5.53911V7.09153H47.018V5.53911ZM40.2581 5.53911L38.714 5.37837L38.274 9.60496L39.8181 9.7657L41.3622 9.92644L41.8022 5.69985L40.2581 5.53911ZM39.8181 9.7657L40.2417 11.2592C40.6892 11.1323 41.177 11.0648 41.7114 11.0648V9.51237V7.95996C40.9125 7.95996 40.1381 8.06134 39.3946 8.27218L39.8181 9.7657ZM41.7114 9.51237V11.0648C42.7271 11.0648 43.5773 11.2803 44.3013 11.6752L45.0447 10.3124L45.7881 8.9495C44.5565 8.27774 43.1846 7.95996 41.7114 7.95996V9.51237ZM45.0447 10.3124L44.3013 11.6752C45.046 12.0814 45.6101 12.6208 46.0235 13.3033L47.3513 12.499L48.6791 11.6946C47.9726 10.5283 46.9989 9.60993 45.7881 8.9495L45.0447 10.3124ZM47.3513 12.499L46.0292 13.3126C46.4319 13.967 46.6522 14.7416 46.6522 15.6856H48.2046H49.757C49.757 14.2296 49.4085 12.8798 48.6734 11.6854L47.3513 12.499ZM48.2046 15.6856H46.6522C46.6522 16.6887 46.4025 17.5343 45.9273 18.2698L47.2313 19.1122L48.5353 19.9546C49.3579 18.6813 49.757 17.2424 49.757 15.6856H48.2046ZM47.2313 19.1122L45.9221 18.278C45.4382 19.0374 44.7705 19.6463 43.8796 20.1058L44.5914 21.4855L45.3031 22.8651C46.6522 22.1692 47.7444 21.1958 48.5406 19.9464L47.2313 19.1122ZM44.5914 21.4855L43.8752 20.1082C43.0164 20.5547 41.993 20.7997 40.7648 20.7997V22.3521V23.9046C42.4165 23.9046 43.9442 23.5718 45.3076 22.8628L44.5914 21.4855ZM40.7648 22.3521V20.7997C39.7535 20.7997 38.7926 20.6208 37.8719 20.2644L37.3115 21.7122L36.7511 23.1599C38.0348 23.6568 39.3761 23.9046 40.7648 23.9046V22.3521ZM37.3115 21.7122L37.886 20.27C36.9732 19.9063 36.2027 19.407 35.5569 18.7755L34.4715 19.8855L33.3862 20.9955C34.3404 21.9285 35.4632 22.6469 36.737 23.1543L37.3115 21.7122Z" fill="url(#paint0_linear_48_9966)" mask="url(#path-1-outside-1_48_9966)"/>
<defs>
<linearGradient id="paint0_linear_48_9966" x1="25.1592" y1="-10.0479" x2="25.1592" y2="33.9521" gradientUnits="userSpaceOnUse">
<stop stop-color="white"/>
<stop offset="0.576923" stop-color="#2B844E"/>
</linearGradient>
</defs>
</svg>
