<svg width="76" height="17" viewBox="0 0 76 17" fill="none" xmlns="http://www.w3.org/2000/svg">
<mask id="path-1-outside-1_48_9978" maskUnits="userSpaceOnUse" x="-0.0141602" y="-0.10498" width="76" height="17" fill="black">
<rect fill="white" x="-0.0141602" y="-0.10498" width="76" height="17"/>
<path d="M1.099 14.895V1.20861H9.9313V3.66304H3.90928V6.77442H9.5572V9.23797H3.90928V12.4406H10.0225V14.895H1.099ZM11.9883 14.1103L12.5631 11.884C12.7456 12.0847 12.9889 12.2703 13.293 12.4406C13.6033 12.6109 13.9348 12.7478 14.2876 12.8512C14.6465 12.9485 14.9841 12.9972 15.3004 12.9972C15.6775 12.9972 15.9725 12.9272 16.1854 12.7873C16.3983 12.6413 16.5048 12.4467 16.5048 12.2034C16.5048 12.0026 16.4318 11.8353 16.2858 11.7015C16.1459 11.5616 15.9543 11.44 15.711 11.3366C15.4737 11.2271 15.2091 11.1206 14.9172 11.0172C14.5218 10.8651 14.1142 10.6887 13.6945 10.488C13.2809 10.2873 12.9311 10.0135 12.6452 9.66681C12.3593 9.32009 12.2164 8.86083 12.2164 8.28905C12.2164 7.74159 12.3593 7.26713 12.6452 6.86566C12.9311 6.45811 13.3356 6.14484 13.8587 5.92586C14.3819 5.7008 14.9902 5.58826 15.6836 5.58826C16.8089 5.58826 17.9312 5.87111 19.0505 6.43682L18.3114 8.50803C18.1167 8.35596 17.8734 8.21605 17.5815 8.08831C17.2895 7.95449 16.9884 7.84804 16.6781 7.76896C16.374 7.68989 16.1003 7.65035 15.857 7.65035C15.5589 7.65035 15.3247 7.71118 15.1544 7.83283C14.9902 7.95449 14.908 8.12177 14.908 8.33467C14.908 8.49282 14.9658 8.63577 15.0814 8.76351C15.197 8.88517 15.3673 9.00378 15.5924 9.11936C15.8235 9.22885 16.1064 9.34746 16.4409 9.4752C16.8546 9.62727 17.2712 9.80976 17.6909 10.0227C18.1167 10.2295 18.4726 10.5093 18.7585 10.8621C19.0505 11.2088 19.1964 11.6711 19.1964 12.249C19.1964 12.8147 19.0413 13.3104 18.7311 13.7362C18.427 14.162 17.9951 14.4936 17.4355 14.7308C16.8819 14.9619 16.2311 15.0775 15.4829 15.0775C14.2359 15.0775 13.071 14.7551 11.9883 14.1103ZM20.706 14.1103L21.2808 11.884C21.4633 12.0847 21.7066 12.2703 22.0107 12.4406C22.321 12.6109 22.6525 12.7478 23.0053 12.8512C23.3642 12.9485 23.7018 12.9972 24.0181 12.9972C24.3952 12.9972 24.6902 12.9272 24.9031 12.7873C25.116 12.6413 25.2225 12.4467 25.2225 12.2034C25.2225 12.0026 25.1495 11.8353 25.0035 11.7015C24.8636 11.5616 24.672 11.44 24.4287 11.3366C24.1914 11.2271 23.9268 11.1206 23.6349 11.0172C23.2395 10.8651 22.8319 10.6887 22.4122 10.488C21.9986 10.2873 21.6488 10.0135 21.3629 9.66681C21.077 9.32009 20.9341 8.86083 20.9341 8.28905C20.9341 7.74159 21.077 7.26713 21.3629 6.86566C21.6488 6.45811 22.0533 6.14484 22.5764 5.92586C23.0996 5.7008 23.7079 5.58826 24.4013 5.58826C25.5266 5.58826 26.6489 5.87111 27.7682 6.43682L27.0291 8.50803C26.8344 8.35596 26.5911 8.21605 26.2991 8.08831C26.0072 7.95449 25.7061 7.84804 25.3958 7.76896C25.0917 7.68989 24.818 7.65035 24.5747 7.65035C24.2766 7.65035 24.0424 7.71118 23.8721 7.83283C23.7079 7.95449 23.6257 8.12177 23.6257 8.33467C23.6257 8.49282 23.6835 8.63577 23.7991 8.76351C23.9147 8.88517 24.085 9.00378 24.3101 9.11936C24.5412 9.22885 24.8241 9.34746 25.1586 9.4752C25.5722 9.62727 25.9889 9.80976 26.4086 10.0227C26.8344 10.2295 27.1903 10.5093 27.4762 10.8621C27.7682 11.2088 27.9141 11.6711 27.9141 12.249C27.9141 12.8147 27.759 13.3104 27.4488 13.7362C27.1447 14.162 26.7128 14.4936 26.1532 14.7308C25.5996 14.9619 24.9488 15.0775 24.2006 15.0775C22.9536 15.0775 21.7887 14.7551 20.706 14.1103ZM38.4658 13.8731C37.3344 14.676 36.0965 15.0775 34.7522 15.0775C33.7546 15.0775 32.8574 14.8646 32.0606 14.4388C31.2698 14.0069 30.6433 13.423 30.181 12.6869C29.7248 11.9509 29.4967 11.1206 29.4967 10.196C29.4967 9.31401 29.7035 8.52628 30.1171 7.83283C30.5368 7.13939 31.1056 6.59193 31.8233 6.19046C32.5411 5.789 33.3562 5.58826 34.2686 5.58826C35.2115 5.58826 36.0418 5.81029 36.7596 6.25433C37.4774 6.6923 38.037 7.30667 38.4384 8.09744C38.8399 8.88212 39.0406 9.79151 39.0406 10.8256V11.1176H32.3161C32.4255 11.4765 32.6019 11.7928 32.8453 12.0665C33.0947 12.3341 33.4049 12.547 33.7759 12.7052C34.1531 12.8633 34.5819 12.9424 35.0625 12.9424C35.9931 12.9424 36.8599 12.6413 37.6629 12.0391L38.4658 13.8731ZM32.1974 9.78543H36.6227C36.574 9.39004 36.4493 9.04332 36.2486 8.74526C36.054 8.44112 35.7954 8.20389 35.4731 8.03357C35.1567 7.86325 34.8009 7.77809 34.4055 7.77809C34.004 7.77809 33.6452 7.86629 33.3288 8.04269C33.0186 8.21909 32.7662 8.45633 32.5715 8.75438C32.3769 9.05244 32.2522 9.39613 32.1974 9.78543ZM50.3679 14.895H47.7492V10.1504C47.7492 9.45695 47.585 8.91558 47.2565 8.52628C46.9341 8.13698 46.487 7.94232 45.9152 7.94232C45.5138 7.94232 45.1579 8.03965 44.8477 8.2343C44.5436 8.42287 44.3063 8.69356 44.136 9.04636C43.9657 9.39308 43.8805 9.80976 43.8805 10.2964V14.895H41.2619V5.77075H43.3787L43.4699 7.23063C43.7984 6.69534 44.2364 6.28779 44.7838 6.00798C45.3313 5.72817 45.9639 5.58826 46.6817 5.58826C47.8252 5.58826 48.7255 5.94107 49.3825 6.64668C50.0394 7.34621 50.3679 8.3073 50.3679 9.52995V14.895ZM59.1677 14.6578C58.4682 14.9376 57.7899 15.0775 57.133 15.0775C56.4517 15.0775 55.8495 14.9346 55.3264 14.6487C54.8093 14.3567 54.4048 13.9522 54.1128 13.4351C53.8209 12.912 53.6749 12.3098 53.6749 11.6285V8.10656H52.0781V5.77075H53.8117V3.48968H56.2935V5.77075H58.821V8.10656H56.2935V11.1541C56.2935 11.6529 56.4304 12.0422 56.7041 12.322C56.9779 12.5957 57.3185 12.7326 57.7261 12.7326C58.0971 12.7326 58.459 12.617 58.8118 12.3858L59.1677 14.6578ZM62.3013 3.59005C61.9546 3.59005 61.6626 3.46839 61.4254 3.22508C61.1882 2.98176 61.0696 2.68674 61.0696 2.34002C61.0696 1.9933 61.1882 1.70132 61.4254 1.46409C61.6626 1.22078 61.9546 1.09912 62.3013 1.09912C62.6541 1.09912 62.9492 1.22078 63.1864 1.46409C63.4297 1.70132 63.5514 1.9933 63.5514 2.34002C63.5514 2.68674 63.4297 2.98176 63.1864 3.22508C62.9492 3.46839 62.6541 3.59005 62.3013 3.59005ZM63.6152 14.895H60.9966V5.77075H63.6152V14.895ZM74.5684 14.895H72.2873L72.1504 13.8092C71.8159 14.2107 71.4022 14.524 70.9095 14.749C70.4168 14.968 69.8754 15.0775 69.2854 15.0775C68.6467 15.0775 68.078 14.9558 67.5792 14.7125C67.0804 14.4631 66.688 14.1225 66.4021 13.6906C66.1162 13.2527 65.9733 12.7569 65.9733 12.2034C65.9733 11.6194 66.1284 11.1054 66.4386 10.6614C66.7489 10.2173 67.1747 9.87059 67.716 9.62119C68.2635 9.36571 68.8839 9.23797 69.5774 9.23797C69.9849 9.23797 70.3925 9.28359 70.8 9.37484C71.2137 9.46608 71.5969 9.59382 71.9497 9.75805V9.52082C71.9497 9.15585 71.8463 8.84259 71.6395 8.58102C71.4387 8.31338 71.1589 8.10656 70.8 7.96057C70.4472 7.81458 70.0518 7.74159 69.6139 7.74159C69.1942 7.74159 68.7775 7.8085 68.3639 7.94232C67.9563 8.07615 67.5792 8.27688 67.2324 8.54453L66.5208 6.54631C67.1351 6.23 67.7556 5.99277 68.3821 5.83462C69.0147 5.67038 69.6261 5.58826 70.2161 5.58826C71.1042 5.58826 71.8737 5.76467 72.5245 6.11747C73.1754 6.46419 73.6772 6.9569 74.03 7.5956C74.3889 8.22822 74.5684 8.97945 74.5684 9.8493V14.895ZM69.8602 13.061C70.207 13.061 70.5385 12.985 70.8548 12.8329C71.1711 12.6809 71.4266 12.474 71.6212 12.2125C71.822 11.9509 71.9284 11.662 71.9406 11.3457V11.2818C71.6729 11.0993 71.3749 10.9594 71.0464 10.8621C70.724 10.7587 70.3955 10.707 70.061 10.707C69.5622 10.707 69.1546 10.8165 68.8383 11.0355C68.522 11.2544 68.3639 11.5373 68.3639 11.884C68.3639 12.1091 68.4277 12.3129 68.5555 12.4953C68.6893 12.6717 68.8687 12.8116 69.0938 12.9151C69.3189 13.0124 69.5743 13.061 69.8602 13.061Z"/>
</mask>
<path d="M1.099 14.895H-0.000205353V15.9942H1.099V14.895ZM1.099 1.20861V0.109406H-0.000205353V1.20861H1.099ZM9.9313 1.20861H11.0305V0.109406H9.9313V1.20861ZM9.9313 3.66304V4.76225H11.0305V3.66304H9.9313ZM3.90928 3.66304V2.56384H2.81007V3.66304H3.90928ZM3.90928 6.77442H2.81007V7.87362H3.90928V6.77442ZM9.5572 6.77442H10.6564V5.67521H9.5572V6.77442ZM9.5572 9.23797V10.3372H10.6564V9.23797H9.5572ZM3.90928 9.23797V8.13877H2.81007V9.23797H3.90928ZM3.90928 12.4406H2.81007V13.5398H3.90928V12.4406ZM10.0225 12.4406H11.1217V11.3414H10.0225V12.4406ZM10.0225 14.895V15.9942H11.1217V14.895H10.0225ZM1.099 14.895H2.19821V1.20861H1.099H-0.000205353V14.895H1.099ZM1.099 1.20861V2.30782H9.9313V1.20861V0.109406H1.099V1.20861ZM9.9313 1.20861H8.83209V3.66304H9.9313H11.0305V1.20861H9.9313ZM9.9313 3.66304V2.56384H3.90928V3.66304V4.76225H9.9313V3.66304ZM3.90928 3.66304H2.81007V6.77442H3.90928H5.00848V3.66304H3.90928ZM3.90928 6.77442V7.87362H9.5572V6.77442V5.67521H3.90928V6.77442ZM9.5572 6.77442H8.45799V9.23797H9.5572H10.6564V6.77442H9.5572ZM9.5572 9.23797V8.13877H3.90928V9.23797V10.3372H9.5572V9.23797ZM3.90928 9.23797H2.81007V12.4406H3.90928H5.00848V9.23797H3.90928ZM3.90928 12.4406V13.5398H10.0225V12.4406V11.3414H3.90928V12.4406ZM10.0225 12.4406H8.92333V14.895H10.0225H11.1217V12.4406H10.0225ZM10.0225 14.895V13.7958H1.099V14.895V15.9942H10.0225V14.895ZM11.9883 14.1103L10.924 13.8355L10.718 14.6332L11.4259 15.0548L11.9883 14.1103ZM12.5631 11.884L13.3764 11.1446L12.0075 9.63881L11.4988 11.6092L12.5631 11.884ZM13.293 12.4406L12.7559 13.3997L12.764 13.4041L13.293 12.4406ZM14.2876 12.8512L13.9784 13.906L13.9891 13.9092L13.9999 13.9121L14.2876 12.8512ZM16.1854 12.7873L16.7891 13.7059L16.7981 13.7L16.8071 13.6939L16.1854 12.7873ZM16.2858 11.7015L15.5085 12.4788L15.5254 12.4957L15.543 12.5118L16.2858 11.7015ZM15.711 11.3366L15.2503 12.3346L15.2656 12.3416L15.281 12.3482L15.711 11.3366ZM14.9172 11.0172L14.5226 12.0431L14.5363 12.0484L14.5502 12.0533L14.9172 11.0172ZM13.6945 10.488L13.2146 11.4769L13.2203 11.4796L13.6945 10.488ZM12.6452 6.86566L13.5406 7.50329L13.5451 7.49691L12.6452 6.86566ZM13.8587 5.92586L14.2832 6.93986L14.2932 6.93558L13.8587 5.92586ZM19.0505 6.43682L20.0857 6.80623L20.4116 5.89313L19.5463 5.4558L19.0505 6.43682ZM18.3114 8.50803L17.6347 9.37423L18.8348 10.3119L19.3467 8.87744L18.3114 8.50803ZM17.5815 8.08831L17.1235 9.08756L17.1321 9.09154L17.1409 9.09536L17.5815 8.08831ZM16.6781 7.76896L16.4015 8.83281L16.4066 8.83411L16.6781 7.76896ZM15.1544 7.83283L14.5155 6.93837L14.5078 6.9439L14.5001 6.94956L15.1544 7.83283ZM15.0814 8.76351L14.2663 9.50098L14.2753 9.51089L14.2845 9.52059L15.0814 8.76351ZM15.5924 9.11936L15.0902 10.0972L15.1059 10.1052L15.1218 10.1128L15.5924 9.11936ZM16.4409 9.4752L16.0488 10.5022L16.0616 10.5069L16.4409 9.4752ZM17.6909 10.0227L17.1937 11.003L17.2022 11.0073L17.2107 11.0114L17.6909 10.0227ZM18.7585 10.8621L17.9045 11.5541L17.911 11.5622L17.9177 11.5701L18.7585 10.8621ZM18.7311 13.7362L17.8427 13.0889L17.8366 13.0973L18.7311 13.7362ZM17.4355 14.7308L17.859 15.7451L17.8645 15.7428L17.4355 14.7308ZM11.9883 14.1103L13.0526 14.3851L13.6274 12.1588L12.5631 11.884L11.4988 11.6092L10.924 13.8355L11.9883 14.1103ZM12.5631 11.884L11.7498 12.6234C12.0309 12.9327 12.3764 13.1871 12.756 13.3997L13.293 12.4406L13.8301 11.4815C13.6014 11.3534 13.4603 11.2368 13.3764 11.1446L12.5631 11.884ZM13.293 12.4406L12.764 13.4041C13.1467 13.6142 13.5522 13.7811 13.9784 13.906L14.2876 12.8512L14.5968 11.7964C14.3174 11.7145 14.0599 11.6076 13.822 11.4771L13.293 12.4406ZM14.2876 12.8512L13.9999 13.9121C14.4366 14.0305 14.8717 14.0964 15.3004 14.0964V12.9972V11.898C15.0965 11.898 14.8563 11.8665 14.5753 11.7903L14.2876 12.8512ZM15.3004 12.9972V14.0964C15.795 14.0964 16.3301 14.0075 16.7891 13.7059L16.1854 12.7873L15.5818 11.8687C15.6005 11.8564 15.5969 11.8642 15.5509 11.8752C15.5037 11.8863 15.4233 11.898 15.3004 11.898V12.9972ZM16.1854 12.7873L16.8071 13.6939C17.2973 13.3577 17.604 12.8345 17.604 12.2034H16.5048H15.4056C15.4056 12.1589 15.417 12.0841 15.4605 12.0044C15.5028 11.9272 15.5511 11.8895 15.5638 11.8808L16.1854 12.7873ZM16.5048 12.2034H17.604C17.604 11.6993 17.4052 11.2365 17.0286 10.8912L16.2858 11.7015L15.543 12.5118C15.5126 12.4839 15.4725 12.4356 15.4426 12.367C15.4128 12.2987 15.4056 12.2391 15.4056 12.2034H16.5048ZM16.2858 11.7015L17.0631 10.9243C16.7961 10.6573 16.4728 10.466 16.1409 10.3249L15.711 11.3366L15.281 12.3482C15.4358 12.4139 15.4957 12.4659 15.5085 12.4788L16.2858 11.7015ZM15.711 11.3366L16.1716 10.3385C15.8988 10.2126 15.6023 10.0937 15.2841 9.98106L14.9172 11.0172L14.5502 12.0533C14.816 12.1475 15.0487 12.2415 15.2503 12.3346L15.711 11.3366ZM14.9172 11.0172L15.3118 9.99126C14.9458 9.85053 14.5649 9.68582 14.1688 9.49636L13.6945 10.488L13.2203 11.4796C13.6636 11.6916 14.0977 11.8797 14.5226 12.0431L14.9172 11.0172ZM13.6945 10.488L14.1744 9.49909C13.8995 9.36568 13.6763 9.1895 13.4933 8.96752L12.6452 9.66681L11.7971 10.3661C12.1859 10.8376 12.6622 11.2088 13.2146 11.4769L13.6945 10.488ZM12.6452 9.66681L13.4933 8.96752C13.4098 8.86625 13.3156 8.67663 13.3156 8.28905H12.2164H11.1172C11.1172 9.04504 11.3089 9.77393 11.7971 10.3661L12.6452 9.66681ZM12.2164 8.28905H13.3156C13.3156 7.94366 13.4019 7.6981 13.5406 7.50328L12.6452 6.86566L11.7498 6.22804C11.3168 6.83616 11.1172 7.53952 11.1172 8.28905H12.2164ZM12.6452 6.86566L13.5451 7.49691C13.6959 7.28196 13.9242 7.0901 14.2832 6.93981L13.8587 5.92586L13.4343 4.91191C12.7471 5.19959 12.1663 5.63426 11.7453 6.23441L12.6452 6.86566ZM13.8587 5.92586L14.2932 6.93558C14.6526 6.78092 15.1078 6.68747 15.6836 6.68747V5.58826V4.48906C14.8725 4.48906 14.1111 4.62067 13.4243 4.91614L13.8587 5.92586ZM15.6836 5.58826V6.68747C16.6178 6.68747 17.5713 6.92083 18.5546 7.41784L19.0505 6.43682L19.5463 5.4558C18.2911 4.8214 17.0001 4.48906 15.6836 4.48906V5.58826ZM19.0505 6.43682L18.0152 6.06741L17.2761 8.13861L18.3114 8.50803L19.3467 8.87744L20.0857 6.80623L19.0505 6.43682ZM18.3114 8.50803L18.9881 7.64183C18.7035 7.41951 18.3753 7.23583 18.022 7.08127L17.5815 8.08831L17.1409 9.09536C17.3715 9.19627 17.5299 9.29241 17.6347 9.37423L18.3114 8.50803ZM17.5815 8.08831L18.0394 7.08906C17.6876 6.9278 17.3241 6.79926 16.9497 6.70382L16.6781 7.76896L16.4066 8.83411C16.6526 8.89682 16.8913 8.98117 17.1235 9.08756L17.5815 8.08831ZM16.6781 7.76896L16.9547 6.70513C16.585 6.609 16.2161 6.55114 15.857 6.55114V7.65035V8.74955C15.9844 8.74955 16.163 8.77077 16.4016 8.8328L16.6781 7.76896ZM15.857 7.65035V6.55114C15.4235 6.55114 14.9362 6.63786 14.5155 6.93837L15.1544 7.83283L15.7933 8.72729C15.7533 8.75584 15.7272 8.76167 15.7341 8.75987C15.743 8.75757 15.7805 8.74955 15.857 8.74955V7.65035ZM15.1544 7.83283L14.5001 6.94956C14.0426 7.28846 13.8088 7.79052 13.8088 8.33467H14.908H16.0072C16.0072 8.37215 15.9992 8.44665 15.9564 8.53393C15.9128 8.62273 15.8537 8.68274 15.8087 8.71611L15.1544 7.83283ZM14.908 8.33467H13.8088C13.8088 8.79065 13.9856 9.19071 14.2663 9.50098L15.0814 8.76351L15.8965 8.02604C15.9152 8.04671 15.9457 8.08718 15.9705 8.14852C15.9959 8.21135 16.0072 8.27626 16.0072 8.33467H14.908ZM15.0814 8.76351L14.2845 9.52059C14.5168 9.76519 14.8053 9.95084 15.0902 10.0972L15.5924 9.11936L16.0945 8.14154C16.0165 8.10151 15.9613 8.06767 15.924 8.0417C15.8861 8.01533 15.8746 8.00247 15.8783 8.00643L15.0814 8.76351ZM15.5924 9.11936L15.1218 10.1128C15.3865 10.2381 15.6973 10.3679 16.0488 10.5021L16.4409 9.4752L16.833 8.4483C16.5154 8.32704 16.2605 8.21955 16.0629 8.12596L15.5924 9.11936ZM16.4409 9.4752L16.0616 10.5069C16.4324 10.6432 16.8097 10.8082 17.1937 11.003L17.6909 10.0227L18.1882 9.04236C17.7328 8.81134 17.2767 8.61135 16.8202 8.44351L16.4409 9.4752ZM17.6909 10.0227L17.2107 11.0114C17.498 11.1509 17.7243 11.3317 17.9045 11.5541L18.7585 10.8621L19.6125 10.17C19.2209 9.68683 18.7355 9.30801 18.1712 9.03391L17.6909 10.0227ZM18.7585 10.8621L17.9177 11.5701C18.0012 11.6693 18.0972 11.8573 18.0972 12.249H19.1964H20.2957C20.2957 11.4849 20.0997 10.7484 19.5993 10.1541L18.7585 10.8621ZM19.1964 12.249H18.0972C18.0972 12.6002 18.0056 12.8654 17.8427 13.089L18.7311 13.7362L19.6195 14.3835C20.0771 13.7555 20.2957 13.0291 20.2957 12.249H19.1964ZM18.7311 13.7362L17.8366 13.0973C17.6682 13.3331 17.4101 13.5476 17.0065 13.7188L17.4355 14.7308L17.8645 15.7428C18.58 15.4395 19.1857 14.991 19.6256 14.3751L18.7311 13.7362ZM17.4355 14.7308L17.0119 13.7165C16.6213 13.8796 16.1204 13.9783 15.4829 13.9783V15.0775V16.1767C16.3417 16.1767 17.1426 16.0443 17.859 15.7451L17.4355 14.7308ZM15.4829 15.0775V13.9783C14.4361 13.9783 13.4652 13.7105 12.5507 13.1659L11.9883 14.1103L11.4259 15.0548C12.6768 15.7997 14.0357 16.1767 15.4829 16.1767V15.0775ZM20.706 14.1103L19.6417 13.8355L19.4357 14.6332L20.1436 15.0548L20.706 14.1103ZM21.2808 11.884L22.0941 11.1446L20.7252 9.63881L20.2165 11.6092L21.2808 11.884ZM22.0107 12.4406L21.4736 13.3997L21.4817 13.4041L22.0107 12.4406ZM23.0053 12.8512L22.6961 13.906L22.7068 13.9092L22.7176 13.9121L23.0053 12.8512ZM24.9031 12.7873L25.5068 13.7059L25.5158 13.7L25.5248 13.6939L24.9031 12.7873ZM25.0035 11.7015L24.2262 12.4788L24.2431 12.4957L24.2607 12.5118L25.0035 11.7015ZM24.4287 11.3366L23.968 12.3346L23.9833 12.3416L23.9987 12.3482L24.4287 11.3366ZM23.6349 11.0172L23.2403 12.0431L23.254 12.0484L23.2679 12.0533L23.6349 11.0172ZM22.4122 10.488L21.9323 11.4769L21.9379 11.4796L22.4122 10.488ZM21.3629 6.86566L22.2583 7.50329L22.2628 7.49691L21.3629 6.86566ZM22.5764 5.92586L23.0009 6.93986L23.0109 6.93558L22.5764 5.92586ZM27.7682 6.43682L28.8034 6.80623L29.1292 5.89313L28.264 5.4558L27.7682 6.43682ZM27.0291 8.50803L26.3524 9.37423L27.5525 10.3119L28.0644 8.87744L27.0291 8.50803ZM26.2991 8.08831L25.8412 9.08756L25.8498 9.09154L25.8586 9.09536L26.2991 8.08831ZM25.3958 7.76896L25.1192 8.83281L25.1243 8.83411L25.3958 7.76896ZM23.8721 7.83283L23.2332 6.93837L23.2255 6.9439L23.2178 6.94956L23.8721 7.83283ZM23.7991 8.76351L22.984 9.50098L22.993 9.51089L23.0022 9.52059L23.7991 8.76351ZM24.3101 9.11936L23.8079 10.0972L23.8236 10.1052L23.8395 10.1128L24.3101 9.11936ZM25.1586 9.4752L24.7665 10.5022L24.7793 10.5069L25.1586 9.4752ZM26.4086 10.0227L25.9114 11.003L25.9198 11.0073L25.9284 11.0114L26.4086 10.0227ZM27.4762 10.8621L26.6222 11.5541L26.6287 11.5622L26.6354 11.5701L27.4762 10.8621ZM27.4488 13.7362L26.5603 13.0889L26.5543 13.0973L27.4488 13.7362ZM26.1532 14.7308L26.5767 15.7451L26.5822 15.7428L26.1532 14.7308ZM20.706 14.1103L21.7703 14.3851L22.3451 12.1588L21.2808 11.884L20.2165 11.6092L19.6417 13.8355L20.706 14.1103ZM21.2808 11.884L20.4674 12.6234C20.7486 12.9327 21.0941 13.1871 21.4737 13.3997L22.0107 12.4406L22.5478 11.4815C22.3191 11.3534 22.178 11.2368 22.0941 11.1446L21.2808 11.884ZM22.0107 12.4406L21.4817 13.4041C21.8644 13.6142 22.2699 13.7811 22.6961 13.906L23.0053 12.8512L23.3145 11.7964C23.0351 11.7145 22.7776 11.6076 22.5397 11.4771L22.0107 12.4406ZM23.0053 12.8512L22.7176 13.9121C23.1543 14.0305 23.5893 14.0964 24.0181 14.0964V12.9972V11.898C23.8142 11.898 23.574 11.8665 23.293 11.7903L23.0053 12.8512ZM24.0181 12.9972V14.0964C24.5127 14.0964 25.0478 14.0075 25.5068 13.7059L24.9031 12.7873L24.2995 11.8687C24.3182 11.8564 24.3146 11.8642 24.2686 11.8752C24.2214 11.8863 24.141 11.898 24.0181 11.898V12.9972ZM24.9031 12.7873L25.5248 13.6939C26.015 13.3577 26.3217 12.8345 26.3217 12.2034H25.2225H24.1233C24.1233 12.1589 24.1347 12.0841 24.1782 12.0044C24.2205 11.9272 24.2688 11.8895 24.2815 11.8808L24.9031 12.7873ZM25.2225 12.2034H26.3217C26.3217 11.6993 26.1229 11.2365 25.7463 10.8912L25.0035 11.7015L24.2607 12.5118C24.2303 12.4839 24.1902 12.4356 24.1603 12.367C24.1305 12.2987 24.1233 12.2391 24.1233 12.2034H25.2225ZM25.0035 11.7015L25.7808 10.9243C25.5138 10.6573 25.1905 10.466 24.8586 10.3249L24.4287 11.3366L23.9987 12.3482C24.1534 12.4139 24.2134 12.4659 24.2262 12.4788L25.0035 11.7015ZM24.4287 11.3366L24.8893 10.3385C24.6165 10.2126 24.32 10.0937 24.0018 9.98106L23.6349 11.0172L23.2679 12.0533C23.5337 12.1475 23.7664 12.2415 23.968 12.3346L24.4287 11.3366ZM23.6349 11.0172L24.0294 9.99126C23.6635 9.85053 23.2826 9.68582 22.8865 9.49636L22.4122 10.488L21.9379 11.4796C22.3813 11.6916 22.8154 11.8797 23.2403 12.0431L23.6349 11.0172ZM22.4122 10.488L22.8921 9.49909C22.6172 9.36568 22.394 9.1895 22.211 8.96752L21.3629 9.66681L20.5148 10.3661C20.9036 10.8376 21.3799 11.2088 21.9323 11.4769L22.4122 10.488ZM21.3629 9.66681L22.211 8.96752C22.1275 8.86625 22.0333 8.67663 22.0333 8.28905H20.9341H19.8349C19.8349 9.04504 20.0265 9.77393 20.5148 10.3661L21.3629 9.66681ZM20.9341 8.28905H22.0333C22.0333 7.94366 22.1196 7.6981 22.2583 7.50328L21.3629 6.86566L20.4675 6.22804C20.0345 6.83616 19.8349 7.53952 19.8349 8.28905H20.9341ZM21.3629 6.86566L22.2628 7.49691C22.4136 7.28196 22.6419 7.0901 23.0009 6.93981L22.5764 5.92586L22.152 4.91191C21.4648 5.19959 20.884 5.63426 20.463 6.23441L21.3629 6.86566ZM22.5764 5.92586L23.0109 6.93558C23.3703 6.78092 23.8255 6.68747 24.4013 6.68747V5.58826V4.48906C23.5902 4.48906 22.8288 4.62067 22.142 4.91614L22.5764 5.92586ZM24.4013 5.58826V6.68747C25.3355 6.68747 26.289 6.92083 27.2723 7.41784L27.7682 6.43682L28.264 5.4558C27.0088 4.8214 25.7178 4.48906 24.4013 4.48906V5.58826ZM27.7682 6.43682L26.7329 6.06741L25.9938 8.13861L27.0291 8.50803L28.0644 8.87744L28.8034 6.80623L27.7682 6.43682ZM27.0291 8.50803L27.7058 7.64183C27.4212 7.41951 27.093 7.23583 26.7397 7.08127L26.2991 8.08831L25.8586 9.09536C26.0892 9.19627 26.2476 9.29241 26.3524 9.37423L27.0291 8.50803ZM26.2991 8.08831L26.7571 7.08906C26.4053 6.9278 26.0418 6.79926 25.6674 6.70382L25.3958 7.76896L25.1243 8.83411C25.3703 8.89682 25.609 8.98117 25.8412 9.08756L26.2991 8.08831ZM25.3958 7.76896L25.6724 6.70513C25.3027 6.609 24.9338 6.55114 24.5747 6.55114V7.65035V8.74955C24.7021 8.74955 24.8807 8.77077 25.1192 8.8328L25.3958 7.76896ZM24.5747 7.65035V6.55114C24.1412 6.55114 23.6539 6.63786 23.2332 6.93837L23.8721 7.83283L24.511 8.72729C24.471 8.75584 24.4449 8.76167 24.4518 8.75987C24.4607 8.75757 24.4982 8.74955 24.5747 8.74955V7.65035ZM23.8721 7.83283L23.2178 6.94956C22.7603 7.28846 22.5265 7.79052 22.5265 8.33467H23.6257H24.7249C24.7249 8.37215 24.7169 8.44665 24.674 8.53393C24.6304 8.62273 24.5714 8.68274 24.5264 8.71611L23.8721 7.83283ZM23.6257 8.33467H22.5265C22.5265 8.79065 22.7033 9.19071 22.984 9.50098L23.7991 8.76351L24.6142 8.02604C24.6329 8.04671 24.6634 8.08718 24.6882 8.14852C24.7136 8.21135 24.7249 8.27626 24.7249 8.33467H23.6257ZM23.7991 8.76351L23.0022 9.52059C23.2345 9.76519 23.523 9.95084 23.8079 10.0972L24.3101 9.11936L24.8122 8.14154C24.7342 8.10151 24.679 8.06767 24.6417 8.0417C24.6038 8.01533 24.5923 8.00247 24.596 8.00643L23.7991 8.76351ZM24.3101 9.11936L23.8395 10.1128C24.1042 10.2381 24.415 10.3679 24.7665 10.5021L25.1586 9.4752L25.5507 8.4483C25.2331 8.32704 24.9782 8.21955 24.7806 8.12596L24.3101 9.11936ZM25.1586 9.4752L24.7793 10.5069C25.15 10.6432 25.5274 10.8082 25.9114 11.003L26.4086 10.0227L26.9059 9.04236C26.4505 8.81134 25.9944 8.61135 25.5379 8.44351L25.1586 9.4752ZM26.4086 10.0227L25.9284 11.0114C26.2157 11.1509 26.442 11.3317 26.6222 11.5541L27.4762 10.8621L28.3302 10.17C27.9386 9.68683 27.4532 9.30801 26.8889 9.03391L26.4086 10.0227ZM27.4762 10.8621L26.6354 11.5701C26.7189 11.6693 26.8149 11.8573 26.8149 12.249H27.9141H29.0133C29.0133 11.4849 28.8174 10.7484 28.317 10.1541L27.4762 10.8621ZM27.9141 12.249H26.8149C26.8149 12.6002 26.7233 12.8654 26.5604 13.089L27.4488 13.7362L28.3372 14.3835C28.7948 13.7555 29.0133 13.0291 29.0133 12.249H27.9141ZM27.4488 13.7362L26.5543 13.0973C26.3859 13.3331 26.1278 13.5476 25.7241 13.7188L26.1532 14.7308L26.5822 15.7428C27.2977 15.4395 27.9034 14.991 28.3433 14.3751L27.4488 13.7362ZM26.1532 14.7308L25.7296 13.7165C25.339 13.8796 24.8381 13.9783 24.2006 13.9783V15.0775V16.1767C25.0594 16.1767 25.8603 16.0443 26.5767 15.7451L26.1532 14.7308ZM24.2006 15.0775V13.9783C23.1538 13.9783 22.1829 13.7105 21.2684 13.1659L20.706 14.1103L20.1436 15.0548C21.3945 15.7997 22.7534 16.1767 24.2006 16.1767V15.0775ZM38.4658 13.8731L39.102 14.7695L39.8315 14.2518L39.4727 13.4323L38.4658 13.8731ZM32.0606 14.4388L31.5337 15.4036L31.5425 15.4083L32.0606 14.4388ZM30.181 12.6869L29.2467 13.2661L29.2501 13.2716L30.181 12.6869ZM30.1171 7.83283L29.1767 7.26365L29.1731 7.26973L30.1171 7.83283ZM36.7596 6.25433L36.1813 7.18914L36.187 7.19266L36.7596 6.25433ZM38.4384 8.09744L37.4583 8.59504L37.4599 8.5981L38.4384 8.09744ZM39.0406 11.1176V12.2168H40.1398V11.1176H39.0406ZM32.3161 11.1176V10.0184H30.8315L31.2647 11.4383L32.3161 11.1176ZM32.8453 12.0665L32.0237 12.7968L32.0323 12.8064L32.0411 12.8159L32.8453 12.0665ZM33.7759 12.7052L33.3449 13.7164L33.3508 13.7189L33.7759 12.7052ZM37.6629 12.0391L38.6698 11.5983L38.1133 10.3273L37.0034 11.1598L37.6629 12.0391ZM32.1974 9.78543L31.1089 9.63236L30.9328 10.8846H32.1974V9.78543ZM36.6227 9.78543V10.8846H37.8655L37.7137 9.65115L36.6227 9.78543ZM36.2486 8.74526L35.3228 9.33779L35.3297 9.34862L35.3369 9.35928L36.2486 8.74526ZM35.4731 8.03357L34.9519 9.00142L34.9596 9.00548L35.4731 8.03357ZM33.3288 8.04269L32.7934 7.08265L32.7855 7.08716L33.3288 8.04269ZM38.4658 13.8731L37.8297 12.9767C36.8778 13.6522 35.8609 13.9783 34.7522 13.9783V15.0775V16.1767C36.3322 16.1767 37.791 15.6999 39.102 14.7695L38.4658 13.8731ZM34.7522 15.0775V13.9783C33.9162 13.9783 33.2 13.8013 32.5786 13.4693L32.0606 14.4388L31.5425 15.4083C32.5149 15.9279 33.5931 16.1767 34.7522 16.1767V15.0775ZM32.0606 14.4388L32.5875 13.4741C31.9553 13.1289 31.4704 12.6732 31.1118 12.1023L30.181 12.6869L29.2501 13.2716C29.8161 14.1727 30.5843 14.885 31.5337 15.4035L32.0606 14.4388ZM30.181 12.6869L31.1153 12.1078C30.7742 11.5576 30.5959 10.9304 30.5959 10.196H29.4967H28.3974C28.3974 11.3108 28.6753 12.3442 29.2467 13.2661L30.181 12.6869ZM29.4967 10.196H30.5959C30.5959 9.49337 30.7583 8.90358 31.0611 8.39593L30.1171 7.83283L29.1731 7.26973C28.6486 8.14898 28.3974 9.13465 28.3974 10.196H29.4967ZM30.1171 7.83283L31.0575 8.40201C31.3771 7.87386 31.8057 7.45979 32.3599 7.14981L31.8233 6.19046L31.2868 5.23112C30.4054 5.72407 29.6965 6.40492 29.1767 7.26366L30.1171 7.83283ZM31.8233 6.19046L32.3599 7.14981C32.8963 6.84979 33.5231 6.68747 34.2686 6.68747V5.58826V4.48906C33.1894 4.48906 32.1859 4.72821 31.2868 5.23112L31.8233 6.19046ZM34.2686 5.58826V6.68747C35.0318 6.68747 35.657 6.86481 36.1813 7.18912L36.7596 6.25433L37.3379 5.31955C36.4265 4.75576 35.3912 4.48906 34.2686 4.48906V5.58826ZM36.7596 6.25433L36.187 7.19266C36.721 7.51846 37.1439 7.97575 37.4583 8.59504L38.4384 8.09744L39.4186 7.59983C38.93 6.63759 38.2337 5.86614 37.3321 5.31601L36.7596 6.25433ZM38.4384 8.09744L37.4599 8.5981C37.7694 9.20306 37.9414 9.9355 37.9414 10.8256H39.0406H40.1398C40.1398 9.64752 39.9104 8.56118 39.417 7.59678L38.4384 8.09744ZM39.0406 10.8256H37.9414V11.1176H39.0406H40.1398V10.8256H39.0406ZM39.0406 11.1176V10.0184H32.3161V11.1176V12.2168H39.0406V11.1176ZM32.3161 11.1176L31.2647 11.4383C31.4192 11.9449 31.6726 12.4017 32.0237 12.7968L32.8453 12.0665L33.6668 11.3362C33.5313 11.1838 33.4319 11.0081 33.3674 10.7968L32.3161 11.1176ZM32.8453 12.0665L32.0411 12.8159C32.4055 13.207 32.8472 13.5042 33.3449 13.7164L33.7759 12.7052L34.2069 11.694C33.9626 11.5899 33.7838 11.4613 33.6494 11.3171L32.8453 12.0665ZM33.7759 12.7052L33.3508 13.7189C33.884 13.9425 34.4611 14.0416 35.0625 14.0416V12.9424V11.8432C34.7027 11.8432 34.4221 11.7842 34.201 11.6915L33.7759 12.7052ZM35.0625 12.9424V14.0416C36.25 14.0416 37.345 13.6515 38.3224 12.9185L37.6629 12.0391L37.0034 11.1598C36.3748 11.6311 35.7362 11.8432 35.0625 11.8432V12.9424ZM37.6629 12.0391L36.6559 12.48L37.4589 14.3139L38.4658 13.8731L39.4727 13.4323L38.6698 11.5983L37.6629 12.0391ZM32.1974 9.78543V10.8846H36.6227V9.78543V8.68622H32.1974V9.78543ZM36.6227 9.78543L37.7137 9.65115C37.6462 9.1029 37.4679 8.58789 37.1603 8.13124L36.2486 8.74526L35.3369 9.35928C35.4308 9.49874 35.5019 9.67719 35.5317 9.9197L36.6227 9.78543ZM36.2486 8.74526L37.1744 8.15273C36.8764 7.687 36.4751 7.31978 35.9865 7.06166L35.4731 8.03357L34.9596 9.00548C35.1158 9.08799 35.2315 9.19524 35.3228 9.33779L36.2486 8.74526ZM35.4731 8.03357L35.9942 7.06575C35.502 6.80074 34.9641 6.67888 34.4055 6.67888V7.77809V8.87729C34.6377 8.87729 34.8115 8.92575 34.9519 9.00139L35.4731 8.03357ZM34.4055 7.77809V6.67888C33.8374 6.67888 33.2907 6.80539 32.7935 7.08268L33.3288 8.04269L33.8642 9.0027C33.9996 8.92719 34.1707 8.87729 34.4055 8.87729V7.77809ZM33.3288 8.04269L32.7855 7.08716C32.3236 7.34982 31.9418 7.70843 31.6512 8.15335L32.5715 8.75438L33.4919 9.35542C33.5906 9.20422 33.7137 9.08837 33.8722 8.99822L33.3288 8.04269ZM32.5715 8.75438L31.6512 8.15335C31.3594 8.60013 31.1838 9.10004 31.1089 9.63236L32.1974 9.78543L33.2859 9.9385C33.3206 9.69221 33.3943 9.50476 33.4919 9.35542L32.5715 8.75438ZM50.3679 14.895V15.9942H51.4671V14.895H50.3679ZM47.7492 14.895H46.65V15.9942H47.7492V14.895ZM47.2565 8.52628L46.4099 9.2274L46.4164 9.23512L47.2565 8.52628ZM44.8477 8.2343L45.4269 9.16853L45.4319 9.1654L44.8477 8.2343ZM44.136 9.04636L45.1226 9.53102L45.1259 9.52424L44.136 9.04636ZM43.8805 14.895V15.9942H44.9797V14.895H43.8805ZM41.2619 14.895H40.1626V15.9942H41.2619V14.895ZM41.2619 5.77075V4.67154H40.1626V5.77075H41.2619ZM43.3787 5.77075L44.4757 5.70218L44.4113 4.67154H43.3787V5.77075ZM43.4699 7.23063L42.3729 7.2992L42.5896 10.7669L44.4068 7.80553L43.4699 7.23063ZM49.3825 6.64668L48.5779 7.3957L48.5812 7.39917L49.3825 6.64668ZM50.3679 14.895V13.7958H47.7492V14.895V15.9942H50.3679V14.895ZM47.7492 14.895H48.8484V10.1504H47.7492H46.65V14.895H47.7492ZM47.7492 10.1504H48.8484C48.8484 9.29132 48.6443 8.46655 48.0966 7.81743L47.2565 8.52628L46.4164 9.23512C46.5256 9.36461 46.65 9.62259 46.65 10.1504H47.7492ZM47.2565 8.52628L48.1031 7.82519C47.5429 7.14873 46.7661 6.84312 45.9152 6.84312V7.94232V9.04153C46.2079 9.04153 46.3253 9.12522 46.4099 9.22737L47.2565 8.52628ZM45.9152 7.94232V6.84312C45.3277 6.84312 44.7654 6.98825 44.2635 7.3032L44.8477 8.2343L45.4319 9.1654C45.5504 9.09105 45.6998 9.04153 45.9152 9.04153V7.94232ZM44.8477 8.2343L44.2685 7.30008C43.7702 7.60901 43.3983 8.04614 43.1461 8.56848L44.136 9.04636L45.1259 9.52424C45.2144 9.34097 45.3169 9.23672 45.4269 9.16852L44.8477 8.2343ZM44.136 9.04636L43.1494 8.56172C42.8883 9.09324 42.7813 9.6842 42.7813 10.2964H43.8805H44.9797C44.9797 9.93531 45.0431 9.69293 45.1226 9.53101L44.136 9.04636ZM43.8805 10.2964H42.7813V14.895H43.8805H44.9797V10.2964H43.8805ZM43.8805 14.895V13.7958H41.2619V14.895V15.9942H43.8805V14.895ZM41.2619 14.895H42.3611V5.77075H41.2619H40.1626V14.895H41.2619ZM41.2619 5.77075V6.86995H43.3787V5.77075V4.67154H41.2619V5.77075ZM43.3787 5.77075L42.2816 5.83931L42.3729 7.2992L43.4699 7.23063L44.567 7.16207L44.4757 5.70218L43.3787 5.77075ZM43.4699 7.23063L44.4068 7.80553C44.632 7.43853 44.9205 7.17256 45.2841 6.98675L44.7838 6.00798L44.2836 5.02921C43.5522 5.40302 42.9648 5.95215 42.5331 6.65573L43.4699 7.23063ZM44.7838 6.00798L45.2841 6.98675C45.6527 6.79836 46.1087 6.68747 46.6817 6.68747V5.58826V4.48906C45.8191 4.48906 45.0099 4.65797 44.2836 5.02921L44.7838 6.00798ZM46.6817 5.58826V6.68747C47.5818 6.68747 48.1676 6.95492 48.578 7.3957L49.3825 6.64668L50.187 5.89766C49.2834 4.92722 48.0687 4.48906 46.6817 4.48906V5.58826ZM49.3825 6.64668L48.5812 7.39917C48.9984 7.84341 49.2687 8.50723 49.2687 9.52995H50.3679H51.4671C51.4671 8.10736 51.0804 6.849 50.1837 5.89419L49.3825 6.64668ZM50.3679 9.52995H49.2687V14.895H50.3679H51.4671V9.52995H50.3679ZM59.1677 14.6578L59.5759 15.6784L60.3892 15.3531L60.2537 14.4877L59.1677 14.6578ZM55.3264 14.6487L54.7859 15.6058L54.7925 15.6096L54.7992 15.6132L55.3264 14.6487ZM54.1128 13.4351L53.153 13.9709L53.1557 13.9756L54.1128 13.4351ZM53.6749 8.10656H54.7741V7.00735H53.6749V8.10656ZM52.0781 8.10656H50.9789V9.20577H52.0781V8.10656ZM52.0781 5.77075V4.67154H50.9789V5.77075H52.0781ZM53.8117 5.77075V6.86995H54.9109V5.77075H53.8117ZM53.8117 3.48968V2.39047H52.7125V3.48968H53.8117ZM56.2935 3.48968H57.3927V2.39047H56.2935V3.48968ZM56.2935 5.77075H55.1943V6.86995H56.2935V5.77075ZM58.821 5.77075H59.9202V4.67154H58.821V5.77075ZM58.821 8.10656V9.20577H59.9202V8.10656H58.821ZM56.2935 8.10656V7.00735H55.1943V8.10656H56.2935ZM56.7041 12.322L55.9183 13.0907L55.9269 13.0992L56.7041 12.322ZM58.8118 12.3858L59.8978 12.2158L59.6342 10.5329L58.2094 11.4664L58.8118 12.3858ZM59.1677 14.6578L58.7595 13.6372C58.1709 13.8726 57.6311 13.9783 57.133 13.9783V15.0775V16.1767C57.9487 16.1767 58.7654 16.0026 59.5759 15.6784L59.1677 14.6578ZM57.133 15.0775V13.9783C56.6093 13.9783 56.1931 13.8697 55.8535 13.6841L55.3264 14.6487L54.7992 15.6132C55.5058 15.9994 56.2941 16.1767 57.133 16.1767V15.0775ZM55.3264 14.6487L55.8669 13.6915C55.524 13.4979 55.2636 13.2375 55.07 12.8946L54.1128 13.4351L53.1557 13.9756C53.5461 14.6669 54.0946 15.2155 54.7859 15.6058L55.3264 14.6487ZM54.1128 13.4351L55.0727 12.8994C54.884 12.5614 54.7741 12.1484 54.7741 11.6285H53.6749H52.5757C52.5757 12.4712 52.7577 13.2626 53.153 13.9709L54.1128 13.4351ZM53.6749 11.6285H54.7741V8.10656H53.6749H52.5757V11.6285H53.6749ZM53.6749 8.10656V7.00735H52.0781V8.10656V9.20577H53.6749V8.10656ZM52.0781 8.10656H53.1773V5.77075H52.0781H50.9789V8.10656H52.0781ZM52.0781 5.77075V6.86995H53.8117V5.77075V4.67154H52.0781V5.77075ZM53.8117 5.77075H54.9109V3.48968H53.8117H52.7125V5.77075H53.8117ZM53.8117 3.48968V4.58889H56.2935V3.48968V2.39047H53.8117V3.48968ZM56.2935 3.48968H55.1943V5.77075H56.2935H57.3927V3.48968H56.2935ZM56.2935 5.77075V6.86995H58.821V5.77075V4.67154H56.2935V5.77075ZM58.821 5.77075H57.7218V8.10656H58.821H59.9202V5.77075H58.821ZM58.821 8.10656V7.00735H56.2935V8.10656V9.20577H58.821V8.10656ZM56.2935 8.10656H55.1943V11.1541H56.2935H57.3927V8.10656H56.2935ZM56.2935 11.1541H55.1943C55.1943 11.8578 55.3926 12.5532 55.9184 13.0906L56.7041 12.322L57.4899 11.5533C57.4682 11.5311 57.3927 11.4479 57.3927 11.1541H56.2935ZM56.7041 12.322L55.9269 13.0992C56.4185 13.5909 57.0441 13.8318 57.7261 13.8318V12.7326V11.6334C57.5929 11.6334 57.5372 11.6005 57.4814 11.5447L56.7041 12.322ZM57.7261 12.7326V13.8318C58.3394 13.8318 58.9076 13.6372 59.4142 13.3053L58.8118 12.3858L58.2094 11.4664C58.0105 11.5968 57.8548 11.6334 57.7261 11.6334V12.7326ZM58.8118 12.3858L57.7259 12.5559L58.0817 14.8279L59.1677 14.6578L60.2537 14.4877L59.8978 12.2158L58.8118 12.3858ZM61.4254 1.46409L62.2027 2.24141L62.2124 2.23145L61.4254 1.46409ZM63.1864 1.46409L62.3994 2.23145L62.4091 2.24141L62.419 2.25112L63.1864 1.46409ZM63.1864 3.22508L62.4091 2.44776L62.3994 2.45772L63.1864 3.22508ZM63.6152 14.895V15.9942H64.7144V14.895H63.6152ZM60.9966 14.895H59.8974V15.9942H60.9966V14.895ZM60.9966 5.77075V4.67154H59.8974V5.77075H60.9966ZM63.6152 5.77075H64.7144V4.67154H63.6152V5.77075ZM62.3013 3.59005V2.49084C62.2791 2.49084 62.2649 2.48891 62.2572 2.48744C62.2497 2.48602 62.2462 2.48463 62.2451 2.48415C62.244 2.48369 62.2417 2.48269 62.2376 2.47987C62.2334 2.47694 62.2248 2.47043 62.2124 2.45772L61.4254 3.22508L60.6384 3.99243C61.0872 4.45273 61.665 4.68925 62.3013 4.68925V3.59005ZM61.4254 3.22508L62.2124 2.45772C62.187 2.43168 62.1805 2.41667 62.1784 2.41128C62.176 2.40547 62.1688 2.38565 62.1688 2.34002H61.0696H59.9703C59.9703 2.96695 60.1965 3.53923 60.6384 3.99243L61.4254 3.22508ZM61.0696 2.34002H62.1688C62.1688 2.29424 62.1761 2.27672 62.1769 2.27471C62.1774 2.27343 62.1811 2.26291 62.2027 2.24135L61.4254 1.46409L60.6481 0.686835C60.1972 1.13779 59.9703 1.71267 59.9703 2.34002H61.0696ZM61.4254 1.46409L62.2124 2.23145C62.2248 2.21874 62.2334 2.21223 62.2376 2.2093C62.2417 2.20648 62.244 2.20548 62.2451 2.20502C62.2462 2.20454 62.2497 2.20315 62.2572 2.20172C62.2649 2.20025 62.2791 2.19833 62.3013 2.19833V1.09912V-8.58307e-05C61.665 -8.58307e-05 61.0872 0.236433 60.6384 0.696735L61.4254 1.46409ZM62.3013 1.09912V2.19833C62.3492 2.19833 62.3669 2.20605 62.3681 2.20656C62.3699 2.20729 62.3723 2.2084 62.376 2.21096C62.3799 2.21363 62.3878 2.21961 62.3994 2.23145L63.1864 1.46409L63.9734 0.696735C63.5206 0.232319 62.9378 -8.58307e-05 62.3013 -8.58307e-05V1.09912ZM63.1864 1.46409L62.419 2.25112C62.4317 2.26352 62.4382 2.27208 62.4412 2.27634C62.444 2.28043 62.445 2.28265 62.4455 2.28377C62.4459 2.28492 62.4473 2.28843 62.4488 2.29592C62.4502 2.30364 62.4521 2.31781 62.4521 2.34002H63.5514H64.6506C64.6506 1.70372 64.414 1.12586 63.9537 0.67706L63.1864 1.46409ZM63.5514 2.34002H62.4521C62.4521 2.38214 62.4454 2.39879 62.4439 2.40228C62.4425 2.4056 62.4364 2.42055 62.4091 2.44782L63.1864 3.22508L63.9636 4.00233C64.4149 3.55112 64.6506 2.97577 64.6506 2.34002H63.5514ZM63.1864 3.22508L62.3994 2.45772C62.3878 2.46956 62.3799 2.47553 62.376 2.4782C62.3723 2.48077 62.3699 2.48188 62.3681 2.48261C62.3669 2.48311 62.3492 2.49084 62.3013 2.49084V3.59005V4.68925C62.9378 4.68925 63.5206 4.45685 63.9734 3.99243L63.1864 3.22508ZM63.6152 14.895V13.7958H60.9966V14.895V15.9942H63.6152V14.895ZM60.9966 14.895H62.0958V5.77075H60.9966H59.8974V14.895H60.9966ZM60.9966 5.77075V6.86995H63.6152V5.77075V4.67154H60.9966V5.77075ZM63.6152 5.77075H62.516V14.895H63.6152H64.7144V5.77075H63.6152ZM74.5684 14.895V15.9942H75.6676V14.895H74.5684ZM72.2873 14.895L71.1967 15.0325L71.3179 15.9942H72.2873V14.895ZM72.1504 13.8092L73.241 13.6718L72.9248 11.163L71.306 13.1055L72.1504 13.8092ZM70.9095 14.749L71.356 15.7536L71.3662 15.7489L70.9095 14.749ZM67.5792 14.7125L67.0876 15.6957L67.0973 15.7005L67.5792 14.7125ZM66.4021 13.6906L65.4817 14.2915L65.4856 14.2974L66.4021 13.6906ZM67.716 9.62119L68.176 10.6196L68.1809 10.6173L67.716 9.62119ZM70.8 9.37484L70.5599 10.4475L70.5633 10.4482L70.8 9.37484ZM71.9497 9.75805L71.4858 10.7546L73.0489 11.4822V9.75805H71.9497ZM71.6395 8.58102L70.7601 9.24055L70.7685 9.25178L70.7772 9.26279L71.6395 8.58102ZM70.8 7.96057L70.3797 8.97628L70.3859 8.97876L70.8 7.96057ZM68.3639 7.94232L68.0255 6.89648L68.0209 6.89798L68.3639 7.94232ZM67.2325 8.54453L66.197 8.91333L66.7051 10.3402L67.9041 9.41465L67.2325 8.54453ZM66.5208 6.54631L66.0176 5.56903L65.1626 6.00921L65.4853 6.91512L66.5208 6.54631ZM68.3821 5.83462L68.6511 6.90042L68.6583 6.89855L68.3821 5.83462ZM72.5245 6.11747L72.0007 7.08386L72.0077 7.08761L72.5245 6.11747ZM74.03 7.5956L73.0678 8.12712L73.074 8.13799L74.03 7.5956ZM71.6212 12.2125L70.7492 11.5433L70.7443 11.5497L70.7394 11.5562L71.6212 12.2125ZM71.9406 11.3457L73.039 11.3879L73.0398 11.3668V11.3457H71.9406ZM71.9406 11.2818H73.0398V10.7009L72.5598 10.3736L71.9406 11.2818ZM71.0464 10.8621L70.7107 11.9088L70.7224 11.9125L70.7341 11.916L71.0464 10.8621ZM68.5555 12.4953L67.655 13.1257L67.667 13.1429L67.6797 13.1597L68.5555 12.4953ZM69.0938 12.9151L68.6349 13.9139L68.6461 13.919L68.6575 13.924L69.0938 12.9151ZM74.5684 14.895V13.7958H72.2873V14.895V15.9942H74.5684V14.895ZM72.2873 14.895L73.3779 14.7576L73.241 13.6718L72.1504 13.8092L71.0599 13.9467L71.1967 15.0325L72.2873 14.895ZM72.1504 13.8092L71.306 13.1055C71.0808 13.3758 70.8014 13.59 70.4528 13.7492L70.9095 14.749L71.3662 15.7489C72.0031 15.4579 72.551 15.0456 72.9949 14.5129L72.1504 13.8092ZM70.9095 14.749L70.4631 13.7446C70.1237 13.8954 69.7363 13.9783 69.2854 13.9783V15.0775V16.1767C70.0146 16.1767 70.7099 16.0406 71.356 15.7535L70.9095 14.749ZM69.2854 15.0775V13.9783C68.7885 13.9783 68.3887 13.8844 68.0611 13.7246L67.5792 14.7125L67.0973 15.7005C67.7673 16.0273 68.5049 16.1767 69.2854 16.1767V15.0775ZM67.5792 14.7125L68.0708 13.7294C67.7305 13.5592 67.4902 13.343 67.3187 13.0839L66.4021 13.6906L65.4856 14.2974C65.8858 14.902 66.4303 15.367 67.0876 15.6957L67.5792 14.7125ZM66.4021 13.6906L67.3226 13.0898C67.1603 12.8411 67.0725 12.5566 67.0725 12.2034H65.9733H64.8741C64.8741 12.9572 65.0722 13.6642 65.4817 14.2915L66.4021 13.6906ZM65.9733 12.2034H67.0725C67.0725 11.8261 67.1687 11.5357 67.3397 11.2909L66.4386 10.6614L65.5376 10.0318C65.0882 10.6751 64.8741 11.4127 64.8741 12.2034H65.9733ZM66.4386 10.6614L67.3397 11.2909C67.5272 11.0225 67.7935 10.7958 68.176 10.6196L67.716 9.62119L67.2561 8.62283C66.5559 8.94542 65.9705 9.41213 65.5376 10.0318L66.4386 10.6614ZM67.716 9.62119L68.1809 10.6173C68.5627 10.4391 69.0209 10.3372 69.5774 10.3372V9.23797V8.13877C68.747 8.13877 67.9643 8.29235 67.2512 8.62511L67.716 9.62119ZM69.5774 9.23797V10.3372C69.9022 10.3372 70.2292 10.3735 70.5599 10.4475L70.8 9.37484L71.0402 8.30218C70.5558 8.19373 70.0677 8.13877 69.5774 8.13877V9.23797ZM70.8 9.37484L70.5633 10.4482C70.9054 10.5237 71.2118 10.627 71.4858 10.7546L71.9497 9.75805L72.4136 8.76153C71.982 8.56063 71.5219 8.40844 71.0368 8.30143L70.8 9.37484ZM71.9497 9.75805H73.0489V9.52082H71.9497H70.8505V9.75805H71.9497ZM71.9497 9.52082H73.0489C73.0489 8.93329 72.8768 8.37358 72.5017 7.89926L71.6395 8.58102L70.7772 9.26279C70.8158 9.31159 70.8505 9.37842 70.8505 9.52082H71.9497ZM71.6395 8.58102L72.5188 7.9215C72.1806 7.47051 71.7282 7.15145 71.2142 6.94238L70.8 7.96057L70.3859 8.97876C70.5897 9.06167 70.6969 9.15625 70.7601 9.24055L71.6395 8.58102ZM70.8 7.96057L71.2203 6.94489C70.7161 6.73625 70.175 6.64238 69.6139 6.64238V7.74159V8.8408C69.9287 8.8408 70.1784 8.89292 70.3798 8.97626L70.8 7.96057ZM69.6139 7.74159V6.64238C69.0752 6.64238 68.5445 6.72858 68.0255 6.89649L68.3639 7.94232L68.7022 8.98816C69.0105 8.88842 69.3131 8.8408 69.6139 8.8408V7.74159ZM68.3639 7.94232L68.0209 6.89798C67.4922 7.0716 67.0043 7.33206 66.5608 7.67441L67.2325 8.54453L67.9041 9.41465C68.1541 9.2217 68.4204 9.08069 68.7068 8.98667L68.3639 7.94232ZM67.2325 8.54453L68.2679 8.17572L67.5562 6.17751L66.5208 6.54631L65.4853 6.91512L66.197 8.91333L67.2325 8.54453ZM66.5208 6.54631L67.0239 7.5236C67.569 7.24297 68.1112 7.0367 68.6511 6.90039L68.3821 5.83462L68.1131 4.76884C67.4 4.94885 66.7013 5.21704 66.0176 5.56903L66.5208 6.54631ZM68.3821 5.83462L68.6583 6.89855C69.2103 6.75525 69.7286 6.68747 70.2161 6.68747V5.58826V4.48906C69.5235 4.48906 68.8191 4.58551 68.1059 4.77068L68.3821 5.83462ZM70.2161 5.58826V6.68747C70.9576 6.68747 71.5399 6.83403 72.0007 7.08384L72.5245 6.11747L73.0484 5.1511C72.2075 4.69529 71.2508 4.48906 70.2161 4.48906V5.58826ZM72.5245 6.11747L72.0077 7.08761C72.4729 7.33543 72.8191 7.67673 73.0679 8.12709L74.03 7.5956L74.9922 7.06412C74.5354 6.23708 73.8778 5.59295 73.0413 5.14733L72.5245 6.11747ZM74.03 7.5956L73.074 8.13799C73.3222 8.57558 73.4692 9.13231 73.4692 9.8493H74.5684H75.6676C75.6676 8.8266 75.4556 7.88086 74.9861 7.05322L74.03 7.5956ZM74.5684 9.8493H73.4692V14.895H74.5684H75.6676V9.8493H74.5684ZM69.8602 13.061V14.1602C70.3739 14.1602 70.868 14.0462 71.3311 13.8236L70.8548 12.8329L70.3785 11.8423C70.2089 11.9238 70.04 11.9618 69.8602 11.9618V13.061ZM70.8548 12.8329L71.3311 13.8236C71.7951 13.6005 72.1942 13.2837 72.503 12.8687L71.6212 12.2125L70.7394 11.5562C70.6589 11.6644 70.5471 11.7612 70.3785 11.8423L70.8548 12.8329ZM71.6212 12.2125L72.4932 12.8817C72.8264 12.4476 73.0177 11.9415 73.039 11.3879L71.9406 11.3457L70.8422 11.3034C70.8391 11.3825 70.8175 11.4542 70.7492 11.5433L71.6212 12.2125ZM71.9406 11.3457H73.0398V11.2818H71.9406H70.8414V11.3457H71.9406ZM71.9406 11.2818L72.5598 10.3736C72.1927 10.1233 71.7901 9.936 71.3587 9.80817L71.0464 10.8621L70.7341 11.916C70.9597 11.9828 71.1531 12.0753 71.3214 12.19L71.9406 11.2818ZM71.0464 10.8621L71.3821 9.81541C70.9525 9.67762 70.5109 9.60777 70.061 9.60777V10.707V11.8062C70.2802 11.8062 70.4955 11.8397 70.7107 11.9088L71.0464 10.8621ZM70.061 10.707V9.60777C69.4045 9.60777 68.7604 9.75249 68.2126 10.1317L68.8383 11.0355L69.464 11.9392C69.5489 11.8804 69.7199 11.8062 70.061 11.8062V10.707ZM68.8383 11.0355L68.2126 10.1317C67.6377 10.5297 67.2647 11.1327 67.2647 11.884H68.3639H69.4631C69.4631 11.8815 69.4633 11.8891 69.4596 11.9038C69.4558 11.9188 69.4497 11.9344 69.4419 11.9483C69.4343 11.9618 69.4285 11.9679 69.4295 11.9668C69.4309 11.9654 69.4406 11.9554 69.464 11.9392L68.8383 11.0355ZM68.3639 11.884H67.2647C67.2647 12.3321 67.3965 12.7564 67.655 13.1257L68.5555 12.4953L69.456 11.865C69.4546 11.863 69.455 11.8633 69.4563 11.866C69.4577 11.8687 69.4593 11.8725 69.4607 11.8769C69.462 11.8813 69.4627 11.8848 69.4631 11.8869C69.4633 11.8889 69.4631 11.8881 69.4631 11.884H68.3639ZM68.5555 12.4953L67.6797 13.1597C67.9353 13.4966 68.2653 13.7441 68.6349 13.9139L69.0938 12.9151L69.5527 11.9162C69.4722 11.8792 69.4433 11.8469 69.4312 11.831L68.5555 12.4953ZM69.0938 12.9151L68.6575 13.924C69.0413 14.0899 69.4489 14.1602 69.8602 14.1602V13.061V11.9618C69.6998 11.9618 69.5965 11.9348 69.5301 11.9061L69.0938 12.9151Z" fill="url(#paint0_linear_48_9978)" mask="url(#path-1-outside-1_48_9978)"/>
<defs>
<linearGradient id="paint0_linear_48_9978" x1="63.7398" y1="-7.10498" x2="63.7398" y2="22.895" gradientUnits="userSpaceOnUse">
<stop stop-color="white"/>
<stop offset="0.576923" stop-color="#2B844E"/>
</linearGradient>
</defs>
</svg>
