<svg width="50" height="24" viewBox="0 0 50 24" fill="none" xmlns="http://www.w3.org/2000/svg">
<mask id="path-1-outside-1_48_9982" maskUnits="userSpaceOnUse" x="-0.0888672" y="-0.960938" width="50" height="25" fill="black">
<rect fill="white" x="-0.0888672" y="-0.960938" width="50" height="25"/>
<path d="M12.8712 11.0358H7.8247C7.80685 11.2053 7.78901 11.366 7.77116 11.5177C7.76223 11.6604 7.75777 11.8211 7.75777 11.9996C7.75777 12.178 7.76223 12.3431 7.77116 12.4948C7.78901 12.6376 7.80685 12.7938 7.8247 12.9634H12.657L12.4563 14.7169H8.26644C8.57878 15.5558 9.03391 16.2875 9.63181 16.9122C10.2386 17.528 10.966 18.0054 11.8137 18.3445C12.6704 18.6747 13.6253 18.8398 14.6783 18.8398V22.4406C12.7954 22.4406 11.1043 22.1238 9.60504 21.4902C8.11473 20.8566 6.8743 19.9598 5.88373 18.7996C4.90209 17.6395 4.22387 16.2786 3.84906 14.7169H1.74746L1.94825 12.9634H3.60811C3.58134 12.767 3.55903 12.593 3.54118 12.4413C3.53226 12.2896 3.5278 12.1156 3.5278 11.9192C3.5278 11.7675 3.53226 11.6203 3.54118 11.4775C3.55011 11.3347 3.56349 11.1875 3.58134 11.0358H1.74746L1.94825 9.2822H3.84906C4.22387 7.71158 4.90209 6.35067 5.88373 5.19947C6.8743 4.03935 8.11473 3.14249 9.60504 2.50888C11.1043 1.87528 12.7954 1.55848 14.6783 1.55848V5.15931C13.6253 5.15931 12.6704 5.32887 11.8137 5.66798C10.966 5.99817 10.2386 6.47114 9.63181 7.0869C9.03391 7.70265 8.57878 8.43442 8.26644 9.2822H13.072L12.8712 11.0358ZM17.6425 20.2989L19.2221 17.2469C19.936 17.7734 20.6365 18.1705 21.3237 18.4382C22.0198 18.7059 22.6935 18.8398 23.345 18.8398C23.9786 18.8398 24.5363 18.7193 25.0182 18.4784C25.509 18.2374 25.8928 17.9028 26.1694 17.4744C26.4461 17.0461 26.5844 16.5553 26.5844 16.002C26.5844 15.0828 26.2051 14.3689 25.4466 13.8602C24.688 13.3426 23.6305 13.0838 22.2741 13.0838H21.4174V10.2192H22.2741C23.0059 10.2192 23.6573 10.1032 24.2284 9.87119C24.8085 9.63024 25.2636 9.30451 25.5938 8.89401C25.924 8.47458 26.0891 7.99715 26.0891 7.46171C26.0891 7.01551 25.9686 6.61839 25.7277 6.27035C25.4957 5.92232 25.1744 5.65013 24.7639 5.45381C24.3623 5.25748 23.8983 5.15931 23.3717 5.15931C22.8274 5.15931 22.2562 5.27533 21.6583 5.50735C21.0694 5.73937 20.4491 6.09187 19.7977 6.56484L17.9906 3.70024C18.7759 3.01309 19.6638 2.48657 20.6544 2.12069C21.6449 1.74588 22.6801 1.55848 23.7599 1.55848C24.9647 1.55848 26.0311 1.77712 26.9592 2.21439C27.8962 2.65167 28.6324 3.25404 29.1679 4.0215C29.7122 4.78897 29.9844 5.67244 29.9844 6.67193C29.9844 7.76066 29.6676 8.73338 29.034 9.59008C28.4004 10.4468 27.566 11.1027 26.5308 11.5578C27.8784 11.9326 28.9359 12.5573 29.7033 13.4319C30.4797 14.3064 30.8679 15.3684 30.8679 16.6177C30.8679 17.7332 30.5556 18.7327 29.9309 19.6162C29.3151 20.4907 28.4718 21.1824 27.4009 21.691C26.33 22.1908 25.1119 22.4406 23.7466 22.4406C22.6221 22.4406 21.5379 22.2577 20.4938 21.8918C19.4496 21.517 18.4992 20.986 17.6425 20.2989ZM33.9124 19.9642L36.0408 16.6177C36.3888 17.287 36.9109 17.8269 37.607 18.2374C38.303 18.639 39.0571 18.8398 39.8692 18.8398C40.5742 18.8398 41.1989 18.6881 41.7432 18.3847C42.2876 18.0813 42.7115 17.6618 43.0149 17.1264C43.3272 16.582 43.4834 15.9618 43.4834 15.2657C43.4834 14.5607 43.3272 13.9405 43.0149 13.4051C42.7115 12.8697 42.2831 12.4502 41.7298 12.1468C41.1766 11.8434 40.5474 11.6917 39.8424 11.6917C39.307 11.6917 38.8028 11.7854 38.3298 11.9728C37.8568 12.1602 37.4329 12.4324 37.0581 12.7893L35.0636 11.6248L35.9471 1.96006H46.5086V5.56089H39.7219L39.2802 9.80426C39.8781 9.6347 40.5117 9.54992 41.181 9.54992C42.4304 9.54992 43.5459 9.81764 44.5275 10.3531C45.5092 10.8885 46.2811 11.6203 46.8433 12.5484C47.4144 13.4765 47.7 14.5429 47.7 15.7476C47.7 17.0327 47.3743 18.1794 46.7228 19.1878C46.0803 20.1963 45.1968 20.9905 44.0724 21.5706C42.9569 22.1506 41.6763 22.4406 40.2306 22.4406C39.0259 22.4406 37.8702 22.2265 36.7636 21.7981C35.666 21.3608 34.7156 20.7495 33.9124 19.9642Z"/>
</mask>
<path d="M12.8712 11.0358V12.5943H14.2615L14.4197 11.2131L12.8712 11.0358ZM7.8247 11.0358V9.47719H6.42158L6.27469 10.8726L7.8247 11.0358ZM7.77116 11.5177L6.22326 11.3356L6.21828 11.3779L6.21562 11.4204L7.77116 11.5177ZM7.77116 12.4948L6.21527 12.5864L6.21828 12.6374L6.22462 12.6882L7.77116 12.4948ZM7.8247 12.9634L6.27469 13.1265L6.42158 14.5219H7.8247V12.9634ZM12.6571 12.9634L14.2055 13.1407L14.4043 11.4048H12.6571V12.9634ZM12.4563 14.7169V16.2755H13.8466L14.0047 14.8942L12.4563 14.7169ZM8.26644 14.7169V13.1583H6.02301L6.80583 15.2608L8.26644 14.7169ZM9.63181 16.9122L8.50587 17.9899L8.51373 17.9981L8.52172 18.0062L9.63181 16.9122ZM11.8137 18.3445L11.2349 19.7916L11.244 19.7953L11.2532 19.7988L11.8137 18.3445ZM14.6783 18.8398H16.2369V17.2812H14.6783V18.8398ZM14.6783 22.4406V23.9992H16.2369V22.4406H14.6783ZM9.60504 21.4902L8.99524 22.9246L8.99832 22.9259L9.60504 21.4902ZM5.88373 18.7997L4.69392 19.8064L4.69844 19.8117L5.88373 18.7997ZM3.84906 14.7169L5.3646 14.3532L5.07784 13.1583H3.84906V14.7169ZM1.74746 14.7169L0.198999 14.5396L0.000234485 16.2755H1.74746V14.7169ZM1.94825 12.9634V11.4048H0.55795L0.39979 12.786L1.94825 12.9634ZM3.60811 12.9634V14.5219H5.39365L5.1524 12.7528L3.60811 12.9634ZM3.54118 12.4413L1.9853 12.5328L1.98797 12.5782L1.99328 12.6234L3.54118 12.4413ZM3.58134 11.0358L5.12924 11.2179L5.33403 9.47719H3.58134V11.0358ZM1.74746 11.0358L0.198999 10.8585L0.000234485 12.5943H1.74746V11.0358ZM1.94825 9.2822V7.72363H0.55795L0.39979 9.1049L1.94825 9.2822ZM3.84906 9.2822V10.8408H5.07947L5.36507 9.64398L3.84906 9.2822ZM5.88373 5.19947L4.69844 4.18742L4.69778 4.18819L5.88373 5.19947ZM9.60504 2.50888L8.99831 1.07325L8.99524 1.07456L9.60504 2.50888ZM14.6783 1.55848H16.2369V-9.72748e-05H14.6783V1.55848ZM14.6783 5.15931V6.71789H16.2369V5.15931H14.6783ZM11.8137 5.66798L12.3794 7.12032L12.3874 7.11716L11.8137 5.66798ZM9.63181 7.0869L8.52169 5.99286L8.51365 6.00114L9.63181 7.0869ZM8.26644 9.2822L6.80396 8.74339L6.03124 10.8408H8.26644V9.2822ZM13.072 9.2822L14.6205 9.45951L14.8192 7.72363H13.072V9.2822ZM12.8712 11.0358V9.47719H7.8247V11.0358V12.5943H12.8712V11.0358ZM7.8247 11.0358L6.27469 10.8726C6.25743 11.0366 6.24028 11.1908 6.22326 11.3356L7.77116 11.5177L9.31906 11.6998C9.33773 11.5411 9.35628 11.3741 9.37471 11.1989L7.8247 11.0358ZM7.77116 11.5177L6.21562 11.4204C6.20425 11.6023 6.1992 11.7962 6.1992 11.9996H7.75777H9.31635C9.31635 11.846 9.32022 11.7186 9.3267 11.6149L7.77116 11.5177ZM7.75777 11.9996H6.1992C6.1992 12.2035 6.20428 12.3995 6.21527 12.5864L7.77116 12.4948L9.32705 12.4033C9.32019 12.2868 9.31635 12.1526 9.31635 11.9996H7.75777ZM7.77116 12.4948L6.22462 12.6882C6.24101 12.8193 6.25771 12.9652 6.27469 13.1265L7.8247 12.9634L9.37471 12.8002C9.356 12.6223 9.33701 12.456 9.3177 12.3015L7.77116 12.4948ZM7.8247 12.9634V14.5219H12.6571V12.9634V11.4048H7.8247V12.9634ZM12.6571 12.9634L11.1086 12.786L10.9078 14.5396L12.4563 14.7169L14.0047 14.8942L14.2055 13.1407L12.6571 12.9634ZM12.4563 14.7169V13.1583H8.26644V14.7169V16.2755H12.4563V14.7169ZM8.26644 14.7169L6.80583 15.2608C7.18955 16.2913 7.75604 17.2065 8.50587 17.9899L9.63181 16.9122L10.7578 15.8345C10.3118 15.3686 9.96801 14.8202 9.72705 14.1731L8.26644 14.7169ZM9.63181 16.9122L8.52172 18.0062C9.28779 18.7836 10.199 19.3773 11.2349 19.7916L11.8137 18.3445L12.3926 16.8974C11.7329 16.6336 11.1895 16.2724 10.7419 15.8182L9.63181 16.9122ZM11.8137 18.3445L11.2532 19.7988C12.313 20.2073 13.4615 20.3984 14.6783 20.3984V18.8398V17.2812C13.7891 17.2812 13.0279 17.1421 12.3742 16.8902L11.8137 18.3445ZM14.6783 18.8398H13.1198V22.4406H14.6783H16.2369V18.8398H14.6783ZM14.6783 22.4406V20.8821C12.9714 20.8821 11.4913 20.5953 10.2118 20.0546L9.60504 21.4902L8.99832 22.9259C10.7173 23.6523 12.6193 23.9992 14.6783 23.9992V22.4406ZM9.60504 21.4902L10.2148 20.0559C8.93244 19.5107 7.89341 18.7531 7.06902 17.7876L5.88373 18.7997L4.69844 19.8117C5.85518 21.1664 7.29703 22.2026 8.99524 22.9246L9.60504 21.4902ZM5.88373 18.7997L7.07353 17.7929C6.25816 16.8293 5.68588 15.6919 5.3646 14.3532L3.84906 14.7169L2.33352 15.0806C2.76185 16.8654 3.54603 18.4498 4.69394 19.8064L5.88373 18.7997ZM3.84906 14.7169V13.1583H1.74746V14.7169V16.2755H3.84906V14.7169ZM1.74746 14.7169L3.29592 14.8942L3.49671 13.1407L1.94825 12.9634L0.39979 12.786L0.198999 14.5396L1.74746 14.7169ZM1.94825 12.9634V14.5219H3.60811V12.9634V11.4048H1.94825V12.9634ZM3.60811 12.9634L5.1524 12.7528C5.12656 12.5633 5.10554 12.3991 5.08908 12.2592L3.54118 12.4413L1.99328 12.6234C2.01252 12.7869 2.03612 12.9707 2.06383 13.1739L3.60811 12.9634ZM3.54118 12.4413L5.09707 12.3498C5.09036 12.2358 5.08637 12.0933 5.08637 11.9192H3.5278H1.96922C1.96922 12.1378 1.97415 12.3434 1.9853 12.5328L3.54118 12.4413ZM3.5278 11.9192H5.08637C5.08637 11.798 5.08994 11.6833 5.09672 11.5747L3.54118 11.4775L1.98564 11.3803C1.97458 11.5573 1.96922 11.737 1.96922 11.9192H3.5278ZM3.54118 11.4775L5.09672 11.5747C5.10376 11.4621 5.11449 11.3432 5.12924 11.2179L3.58134 11.0358L2.03344 10.8537C2.01249 11.0317 1.99645 11.2073 1.98564 11.3803L3.54118 11.4775ZM3.58134 11.0358V9.47719H1.74746V11.0358V12.5943H3.58134V11.0358ZM1.74746 11.0358L3.29592 11.2131L3.49671 9.45951L1.94825 9.2822L0.39979 9.1049L0.198999 10.8585L1.74746 11.0358ZM1.94825 9.2822V10.8408H3.84906V9.2822V7.72363H1.94825V9.2822ZM3.84906 9.2822L5.36507 9.64398C5.68666 8.29635 6.25851 7.16204 7.06968 6.21075L5.88373 5.19947L4.69778 4.18819C3.54568 5.5393 2.76108 7.1268 2.33305 8.92043L3.84906 9.2822ZM5.88373 5.19947L7.06902 6.21152C7.89341 5.24602 8.93244 4.48843 10.2148 3.94321L9.60504 2.50888L8.99524 1.07456C7.29703 1.79655 5.85518 2.83268 4.69844 4.18742L5.88373 5.19947ZM9.60504 2.50888L10.2118 3.94452C11.4913 3.40377 12.9714 3.11705 14.6783 3.11705V1.55848V-9.72748e-05C12.6193 -9.72748e-05 10.7173 0.346788 8.99832 1.07325L9.60504 2.50888ZM14.6783 1.55848H13.1198V5.15931H14.6783H16.2369V1.55848H14.6783ZM14.6783 5.15931V3.60074C13.4567 3.60074 12.3036 3.79784 11.2401 4.21881L11.8137 5.66798L12.3874 7.11716C13.0373 6.8599 13.7939 6.71789 14.6783 6.71789V5.15931ZM11.8137 5.66798L11.2481 4.21567C10.2065 4.62132 9.29079 5.21251 8.52172 5.99289L9.63181 7.0869L10.7419 8.1809C11.1865 7.72977 11.7254 7.37502 12.3794 7.12029L11.8137 5.66798ZM9.63181 7.0869L8.51365 6.00114C7.75607 6.78133 7.18755 7.70222 6.80396 8.74339L8.26644 9.2822L9.72892 9.82101C9.97001 9.16662 10.3117 8.62397 10.75 8.17265L9.63181 7.0869ZM8.26644 9.2822V10.8408H13.072V9.2822V7.72363H8.26644V9.2822ZM13.072 9.2822L11.5236 9.1049L11.3228 10.8585L12.8712 11.0358L14.4197 11.2131L14.6205 9.45951L13.072 9.2822ZM17.6425 20.2989L16.2583 19.5825L15.6717 20.7161L16.6674 21.5147L17.6425 20.2989ZM19.2221 17.2469L20.1472 15.9925L18.6773 14.9085L17.8379 16.5305L19.2221 17.2469ZM21.3237 18.4382L20.7579 19.8905L20.7642 19.8929L21.3237 18.4382ZM25.0182 18.4784L24.3314 17.0793L24.3212 17.0844L25.0182 18.4784ZM25.4466 13.8602L24.5681 15.1477L24.5785 15.1547L25.4466 13.8602ZM21.4174 13.0838H19.8588V14.6424H21.4174V13.0838ZM21.4174 10.2192V8.66065H19.8588V10.2192H21.4174ZM24.2284 9.87119L24.8151 11.3152L24.8263 11.3105L24.2284 9.87119ZM25.5938 8.89401L26.8083 9.87086L26.8134 9.8645L26.8185 9.85808L25.5938 8.89401ZM25.7277 6.27035L24.4309 7.13489L24.4384 7.14627L24.4462 7.15751L25.7277 6.27035ZM24.7639 5.45381L24.0793 6.85406L24.0914 6.85985L24.7639 5.45381ZM21.6583 5.50735L21.0945 4.05432L21.0871 4.05724L21.6583 5.50735ZM19.7977 6.56484L18.4795 7.39642L19.3671 8.80348L20.7134 7.82607L19.7977 6.56484ZM17.9906 3.70024L16.9642 2.52729L15.9614 3.40478L16.6724 4.53181L17.9906 3.70024ZM20.6544 2.12069L21.1944 3.58277L21.206 3.57841L20.6544 2.12069ZM26.9592 2.21439L26.2949 3.62432L26.3001 3.62675L26.9592 2.21439ZM29.1679 4.0215L27.8896 4.91332L27.8966 4.92321L29.1679 4.0215ZM26.5308 11.5578L25.9036 10.1311L21.9052 11.889L26.1132 13.0594L26.5308 11.5578ZM29.7033 13.4319L28.5318 14.4599L28.5378 14.4666L29.7033 13.4319ZM29.9309 19.6162L28.6583 18.7164L28.6565 18.7189L29.9309 19.6162ZM27.4009 21.691L28.06 23.1034L28.0696 23.0989L27.4009 21.691ZM20.4938 21.8918L19.9671 23.3588L19.9783 23.3627L20.4938 21.8918ZM17.6425 20.2989L19.0267 21.0153L20.6063 17.9632L19.2221 17.2469L17.8379 16.5305L16.2583 19.5825L17.6425 20.2989ZM19.2221 17.2469L18.297 18.5012C19.0999 19.0933 19.92 19.564 20.7579 19.8905L21.3237 18.4382L21.8895 16.986C21.3531 16.777 20.7721 16.4534 20.1472 15.9925L19.2221 17.2469ZM21.3237 18.4382L20.7642 19.8929C21.6132 20.2195 22.4766 20.3984 23.345 20.3984V18.8398V17.2812C22.9104 17.2812 22.4263 17.1924 21.8832 16.9835L21.3237 18.4382ZM23.345 18.8398V20.3984C24.1781 20.3984 24.9819 20.2391 25.7152 19.8724L25.0182 18.4784L24.3212 17.0844C24.0907 17.1996 23.779 17.2812 23.345 17.2812V18.8398ZM25.0182 18.4784L25.705 19.8775C26.4307 19.5213 27.0375 19.0031 27.4787 18.32L26.1694 17.4744L24.8602 16.6289C24.748 16.8024 24.5874 16.9536 24.3314 17.0793L25.0182 18.4784ZM26.1694 17.4744L27.4787 18.32C27.9319 17.6182 28.143 16.8287 28.143 16.002H26.5844H25.0258C25.0258 16.2819 24.9602 16.4739 24.8602 16.6289L26.1694 17.4744ZM26.5844 16.002H28.143C28.143 14.5672 27.5081 13.3661 26.3146 12.5658L25.4466 13.8602L24.5785 15.1547C24.9022 15.3717 25.0258 15.5984 25.0258 16.002H26.5844ZM25.4466 13.8602L26.325 12.5728C25.2112 11.8128 23.8025 11.5252 22.2741 11.5252V13.0838V14.6424C23.4586 14.6424 24.1648 14.8725 24.5681 15.1476L25.4466 13.8602ZM22.2741 13.0838V11.5252H21.4174V13.0838V14.6424H22.2741V13.0838ZM21.4174 13.0838H22.976V10.2192H21.4174H19.8588V13.0838H21.4174ZM21.4174 10.2192V11.7778H22.2741V10.2192V8.66065H21.4174V10.2192ZM22.2741 10.2192V11.7778C23.1701 11.7778 24.0262 11.6356 24.8151 11.3152L24.2284 9.87119L23.6418 8.42722C23.2884 8.57081 22.8416 8.66065 22.2741 8.66065V10.2192ZM24.2284 9.87119L24.8263 11.3105C25.6011 10.9887 26.2858 10.5205 26.8083 9.87086L25.5938 8.89401L24.3794 7.91716C24.2415 8.08855 24.0159 8.27179 23.6306 8.43185L24.2284 9.87119ZM25.5938 8.89401L26.8185 9.85808C27.3657 9.16294 27.6477 8.3457 27.6477 7.4617H26.0891H24.5305C24.5305 7.64859 24.4823 7.78621 24.3692 7.92994L25.5938 8.89401ZM26.0891 7.4617H27.6477C27.6477 6.71663 27.4406 6.00641 27.0091 5.38319L25.7277 6.27035L24.4462 7.15751C24.4967 7.23036 24.5305 7.31438 24.5305 7.4617H26.0891ZM25.7277 6.27035L27.0245 5.40581C26.6233 4.80406 26.0769 4.35413 25.4363 4.04776L24.7639 5.45381L24.0914 6.85985C24.2718 6.94614 24.368 7.04057 24.4309 7.13489L25.7277 6.27035ZM24.7639 5.45381L25.4484 4.0536C24.799 3.73609 24.0936 3.60074 23.3717 3.60074V5.15931V6.71789C23.7029 6.71789 23.9256 6.77886 24.0793 6.85401L24.7639 5.45381ZM23.3717 5.15931V3.60074C22.6035 3.60074 21.8408 3.76474 21.0945 4.05434L21.6583 5.50735L22.2222 6.96036C22.6717 6.78592 23.0513 6.71789 23.3717 6.71789V5.15931ZM21.6583 5.50735L21.0871 4.05724C20.3479 4.34841 19.6125 4.77323 18.882 5.30362L19.7977 6.56484L20.7134 7.82607C21.2857 7.41052 21.7908 7.13033 22.2296 6.95746L21.6583 5.50735ZM19.7977 6.56484L21.1159 5.73327L19.3088 2.86867L17.9906 3.70024L16.6724 4.53181L18.4795 7.39642L19.7977 6.56484ZM17.9906 3.70024L19.0169 4.87319C19.6574 4.31278 20.38 3.88352 21.1944 3.58272L20.6544 2.12069L20.1144 0.658661C18.9476 1.08963 17.8944 1.7134 16.9642 2.52729L17.9906 3.70024ZM20.6544 2.12069L21.206 3.57841C22.0168 3.2716 22.8648 3.11705 23.7599 3.11705V1.55848V-9.72748e-05C22.4954 -9.72748e-05 21.2731 0.220163 20.1028 0.662975L20.6544 2.12069ZM23.7599 1.55848V3.11705C24.7747 3.11705 25.6077 3.30055 26.2949 3.62431L26.9592 2.21439L27.6235 0.804472C26.4545 0.253677 25.1546 -9.72748e-05 23.7599 -9.72748e-05V1.55848ZM26.9592 2.21439L26.3001 3.62675C27.0153 3.96051 27.5273 4.39387 27.8897 4.91329L29.1679 4.0215L30.4461 3.12971C29.7376 2.11421 28.7771 1.34283 27.6183 0.802036L26.9592 2.21439ZM29.1679 4.0215L27.8966 4.92321C28.2421 5.4103 28.4259 5.97423 28.4259 6.67193H29.9844H31.543C31.543 5.37065 31.1824 4.16764 30.4391 3.1198L29.1679 4.0215ZM29.9844 6.67193H28.4259C28.4259 7.4348 28.2115 8.08107 27.7809 8.66331L29.034 9.59008L30.2871 10.5168C31.1237 9.38568 31.543 8.08652 31.543 6.67193H29.9844ZM29.034 9.59008L27.7809 8.66331C27.3188 9.28822 26.7059 9.77829 25.9036 10.1311L26.5308 11.5578L27.1581 12.9846C28.4261 12.4271 29.4821 11.6054 30.2871 10.5168L29.034 9.59008ZM26.5308 11.5578L26.1132 13.0594C27.2285 13.3696 28.0016 13.8556 28.5319 14.4599L29.7033 13.4319L30.8748 12.4038C29.8701 11.259 28.5283 10.4957 26.9485 10.0562L26.5308 11.5578ZM29.7033 13.4319L28.5378 14.4666C29.0428 15.0354 29.3093 15.7214 29.3093 16.6177H30.8679H32.4265C32.4265 15.0153 31.9167 13.5774 30.8689 12.3971L29.7033 13.4319ZM30.8679 16.6177H29.3093C29.3093 17.4216 29.0909 18.1046 28.6583 18.7164L29.9309 19.6162L31.2035 20.516C32.0203 19.3608 32.4265 18.0449 32.4265 16.6177H30.8679ZM29.9309 19.6162L28.6565 18.7189C28.2116 19.3508 27.5875 19.8769 26.7322 20.2832L27.4009 21.691L28.0696 23.0989C29.3561 22.4878 30.4187 21.6307 31.2053 20.5135L29.9309 19.6162ZM27.4009 21.691L26.7418 20.2787C25.9071 20.6682 24.9194 20.8821 23.7466 20.8821V22.4406V23.9992C25.3044 23.9992 26.753 23.7133 28.06 23.1034L27.4009 21.691ZM23.7466 22.4406V20.8821C22.7947 20.8821 21.8849 20.7278 21.0092 20.4209L20.4938 21.8918L19.9783 23.3627C21.1908 23.7876 22.4495 23.9992 23.7466 23.9992V22.4406ZM20.4938 21.8918L21.0203 20.4249C20.137 20.1078 19.3384 19.6612 18.6177 19.0831L17.6425 20.2989L16.6674 21.5147C17.66 22.3109 18.7623 22.9262 19.9672 23.3587L20.4938 21.8918ZM33.9124 19.9642L32.5973 19.1278L31.9188 20.1947L32.8228 21.0786L33.9124 19.9642ZM36.0408 16.6177L37.4236 15.8987L36.1764 13.5003L34.7257 15.7813L36.0408 16.6177ZM37.607 18.2374L36.8152 19.5799L36.8216 19.5837L36.8281 19.5875L37.607 18.2374ZM41.7432 18.3847L42.502 19.7461L41.7432 18.3847ZM43.0149 17.1264L41.663 16.3507L41.6589 16.358L43.0149 17.1264ZM43.0149 13.4051L41.6589 14.1735L41.6637 14.182L41.6686 14.1904L43.0149 13.4051ZM37.0581 12.7893L36.2722 14.1353L37.2843 14.7262L38.133 13.918L37.0581 12.7893ZM35.0636 11.6248L33.5115 11.4829L33.4212 12.4706L34.2777 12.9707L35.0636 11.6248ZM35.9471 1.96006V0.401482H34.5245L34.395 1.81818L35.9471 1.96006ZM46.5086 1.96006H48.0672V0.401482H46.5086V1.96006ZM46.5086 5.56089V7.11947H48.0672V5.56089H46.5086ZM39.7219 5.56089V4.00232H38.3172L38.1717 5.39952L39.7219 5.56089ZM39.2802 9.80426L37.73 9.64288L37.4918 11.9315L39.7054 11.3037L39.2802 9.80426ZM46.8433 12.5484L45.5102 13.3559L45.5159 13.3652L46.8433 12.5484ZM46.7228 19.1878L45.4136 18.3421L45.4084 18.3503L46.7228 19.1878ZM44.0724 21.5706L43.3578 20.1854L43.3533 20.1878L44.0724 21.5706ZM36.7636 21.7981L36.1868 23.246L36.1939 23.2488L36.201 23.2516L36.7636 21.7981ZM33.9124 19.9642L35.2275 20.8007L37.3559 17.4542L36.0408 16.6177L34.7257 15.7813L32.5973 19.1278L33.9124 19.9642ZM36.0408 16.6177L34.658 17.3368C35.1504 18.2838 35.8863 19.0321 36.8152 19.5799L37.607 18.2374L38.3987 16.8949C37.9355 16.6218 37.6272 16.2903 37.4236 15.8987L36.0408 16.6177ZM37.607 18.2374L36.8281 19.5875C37.7636 20.1272 38.7867 20.3984 39.8692 20.3984V18.8398V17.2812C39.3275 17.2812 38.8424 17.1509 38.3858 16.8874L37.607 18.2374ZM39.8692 18.8398V20.3984C40.8044 20.3984 41.6966 20.195 42.502 19.7461L41.7432 18.3847L40.9844 17.0233C40.7011 17.1812 40.344 17.2812 39.8692 17.2812V18.8398ZM41.7432 18.3847L42.502 19.7461C43.2927 19.3053 43.9247 18.6822 44.3709 17.8948L43.0149 17.1264L41.6589 16.358C41.4983 16.6415 41.2824 16.8572 40.9844 17.0233L41.7432 18.3847ZM43.0149 17.1264L44.3668 17.9021C44.8289 17.0966 45.042 16.2036 45.042 15.2657H43.4834H41.9248C41.9248 15.7201 41.8256 16.0675 41.663 16.3507L43.0149 17.1264ZM43.4834 15.2657H45.042C45.042 14.3234 44.8308 13.4248 44.3612 12.6198L43.0149 13.4051L41.6686 14.1904C41.8237 14.4562 41.9248 14.7981 41.9248 15.2657H43.4834ZM43.0149 13.4051L44.3709 12.6367C43.921 11.8428 43.2796 11.2191 42.4793 10.7802L41.7298 12.1468L40.9804 13.5134C41.2867 13.6813 41.502 13.8965 41.6589 14.1735L43.0149 13.4051ZM41.7298 12.1468L42.4793 10.7802C41.6703 10.3366 40.7781 10.1331 39.8424 10.1331V11.6917V13.2503C40.3167 13.2503 40.6828 13.3502 40.9804 13.5134L41.7298 12.1468ZM39.8424 11.6917V10.1331C39.1209 10.1331 38.4209 10.2602 37.7557 10.5238L38.3298 11.9728L38.9039 13.4218C39.1847 13.3105 39.4931 13.2503 39.8424 13.2503V11.6917ZM38.3298 11.9728L37.7557 10.5238C37.0935 10.7862 36.5003 11.1683 35.9832 11.6607L37.0581 12.7893L38.133 13.918C38.3656 13.6965 38.6202 13.5342 38.9039 13.4218L38.3298 11.9728ZM37.0581 12.7893L37.844 11.4434L35.8495 10.2788L35.0636 11.6248L34.2777 12.9707L36.2722 14.1353L37.0581 12.7893ZM35.0636 11.6248L36.6157 11.7666L37.4992 2.10194L35.9471 1.96006L34.395 1.81818L33.5115 11.4829L35.0636 11.6248ZM35.9471 1.96006V3.51863H46.5086V1.96006V0.401482H35.9471V1.96006ZM46.5086 1.96006H44.9501V5.56089H46.5086H48.0672V1.96006H46.5086ZM46.5086 5.56089V4.00232H39.7219V5.56089V7.11947H46.5086V5.56089ZM39.7219 5.56089L38.1717 5.39952L37.73 9.64288L39.2802 9.80426L40.8304 9.96563L41.2721 5.72227L39.7219 5.56089ZM39.2802 9.80426L39.7054 11.3037C40.1548 11.1763 40.6445 11.1085 41.181 11.1085V9.54992V7.99134C40.3789 7.99134 39.6014 8.09313 38.855 8.30481L39.2802 9.80426ZM41.181 9.54992V11.1085C42.2007 11.1085 43.0543 11.3249 43.7812 11.7213L44.5275 10.3531L45.2738 8.98481C44.0374 8.31039 42.66 7.99134 41.181 7.99134V9.54992ZM44.5275 10.3531L43.7812 11.7213C44.5289 12.1292 45.0951 12.6707 45.5102 13.3559L46.8433 12.5484L48.1764 11.7409C47.467 10.5699 46.4894 9.64787 45.2738 8.98481L44.5275 10.3531ZM46.8433 12.5484L45.5159 13.3652C45.9202 14.0223 46.1414 14.7999 46.1414 15.7476H47.7H49.2586C49.2586 14.2859 48.9086 12.9307 48.1707 11.7315L46.8433 12.5484ZM47.7 15.7476H46.1414C46.1414 16.7547 45.8907 17.6037 45.4137 18.3421L46.7228 19.1878L48.032 20.0336C48.8578 18.7552 49.2586 17.3106 49.2586 15.7476H47.7ZM46.7228 19.1878L45.4084 18.3503C44.9226 19.1128 44.2522 19.724 43.3578 20.1854L44.0724 21.5706L44.7869 22.9557C46.1414 22.2569 47.238 21.2798 48.0373 20.0254L46.7228 19.1878ZM44.0724 21.5706L43.3533 20.1878C42.4911 20.6361 41.4637 20.8821 40.2306 20.8821V22.4406V23.9992C41.8889 23.9992 43.4226 23.6651 44.7914 22.9533L44.0724 21.5706ZM40.2306 22.4406V20.8821C39.2153 20.8821 38.2506 20.7024 37.3263 20.3446L36.7636 21.7981L36.201 23.2516C37.4898 23.7505 38.8365 23.9992 40.2306 23.9992V22.4406ZM36.7636 21.7981L37.3404 20.3502C36.424 19.9851 35.6504 19.4838 35.002 18.8498L33.9124 19.9642L32.8228 21.0786C33.7807 22.0153 34.908 22.7366 36.1868 23.246L36.7636 21.7981Z" fill="url(#paint0_linear_48_9982)" mask="url(#path-1-outside-1_48_9982)"/>
<defs>
<linearGradient id="paint0_linear_48_9982" x1="24.9111" y1="-9.96094" x2="24.9111" y2="34.0391" gradientUnits="userSpaceOnUse">
<stop stop-color="white"/>
<stop offset="0.576923" stop-color="#2B844E"/>
</linearGradient>
</defs>
</svg>
